<svg width="1024px" height="1024px" viewBox="0 0 1024 1024" version="1.1" xmlns:xlink="http://www.w3.org/1999/xlink" xmlns="http://www.w3.org/2000/svg">
  <defs>
    <path d="M0 0L1024 0L1024 1024L0 1024L0 0Z" id="path_1" />
    <path d="M0 0L797.853 0L797.853 797.853L0 797.853L0 0Z" id="path_2" />
    <clipPath id="clip_1">
      <use xlink:href="#path_1" />
    </clipPath>
    <clipPath id="clip_2">
      <use xlink:href="#path_2" />
    </clipPath>
  </defs>
  <g id="Icon 1024" clip-path="url(#clip_1)">
    <path d="M0 0L1024 0L1024 1024L0 1024L0 0Z" id="Icon-1024"  fill-rule="evenodd" stroke="none" />
    <path d="M35 95.8427L991.927 95.8427L991.927 880.025L35 880.025L35 95.8427Z" id="Rectangle" fill="#FFCDD2" fill-rule="evenodd" stroke="none" />
    <path d="M35 688.64C35 688.64 128.207 705.417 175.432 753.264C222.657 801.11 223.901 880.026 223.901 880.026L35 880.026L35 688.64Z" id="Vector-3" fill="#448AFF" fill-rule="evenodd" stroke="#808080" stroke-width="1" />
    <path d="M433.683 880.428L514.706 878.941L512.906 808.144C510.998 785.602 507.576 759.019 501.574 730.425C497.963 713.229 493.418 695.186 487.708 676.977C484.875 667.939 481.753 658.831 478.315 649.708C474.697 640.101 470.729 630.63 466.377 621.052C462.164 611.782 457.593 602.555 452.634 593.426C449.079 586.884 445.325 580.393 441.36 573.974C438.248 568.935 435.004 563.939 431.626 558.998C427.54 553.022 423.508 547.126 419.016 541.328C413.632 534.378 407.949 527.569 401.949 520.931C395.29 513.563 388.241 506.407 380.781 499.505C374.97 494.128 368.909 491.259 362.587 486.211C355.773 480.769 348.657 475.508 341.226 470.458C332.091 464.252 322.483 458.171 312.374 452.656C304.477 448.348 296.315 444.27 287.868 440.447C281.477 437.555 274.922 434.809 268.195 432.221C261.06 429.475 253.73 426.906 246.196 424.526C236.283 421.396 226.015 418.594 215.367 416.15C206.009 414.002 196.357 412.131 186.396 410.556C176.98 409.068 167.287 407.846 157.304 406.905C146.806 405.917 135.987 407.25 124.83 406.905C97.1278 406.05 36.2418 408.777 36.2418 408.777L35.2298 477.12C35.2298 477.12 237.61 516.723 272.99 558.292C373.344 676.204 361.776 649.891 401.95 730.425C442.123 810.959 433.683 880.428 433.683 880.428Z" id="Vector" fill="#448AFF" fill-rule="evenodd" stroke="#808080" stroke-width="1" />
    <path d="M37.4856 566.846C34.3372 570.74 37.4854 642.656 37.4854 642.656C37.4854 642.656 151.819 660.985 210.851 720.328C269.882 779.67 273.612 880.025 273.612 880.025L357.496 880.023C357.496 880.023 353.615 750.776 273.612 672.481C193.609 594.187 40.6339 562.952 37.4856 566.846Z" id="Vector-2" fill="#448AFF" fill-rule="evenodd" stroke="#808080" stroke-width="1" />
    <g id="Music" clip-path="url(#clip_2)" transform="translate(353.14703 38.675644)">
      <path d="M0 0L797.853 0L797.853 797.853L0 797.853L0 0Z" id="Music" fill="none" fill-rule="evenodd" stroke="none" />
      <path d="M283.594 718.035C283.594 718.035 322.558 721.915 347.973 700.839C373.389 679.763 385.256 650.586 385.256 650.586L398.926 597.69L398.926 257.794L585.341 209.948C585.341 209.948 581.972 130.15 580.85 98.0616C579.727 65.973 578.747 82.0113 578.747 82.0113L555.655 86.6011L385.256 120.469C385.256 120.469 373.444 122.489 364.123 132.897C354.802 143.305 347.973 162.102 347.973 162.102L347.973 457.879L347.973 480.249C347.973 480.249 333.164 486.988 303.804 500.347C274.444 513.707 230.532 533.688 230.532 533.688C230.532 533.688 213.6 536.328 202.57 552.329C191.541 568.33 186.414 597.69 186.414 597.69C186.414 597.69 182.375 613.573 186.414 633.768C190.453 653.963 202.57 678.469 202.57 678.469C202.57 678.469 210.073 689.14 217.063 699.082C224.054 709.024 244.472 718.035 244.472 718.035L283.594 718.035Z" id="Vector" fill="#448AFF" fill-rule="evenodd" stroke="#F44336" stroke-width="1" />
    </g>
  </g>
</svg>