<?xml version="1.0" encoding="UTF-8" standalone="no"?>
<!-- Created with Inkscape (http://www.inkscape.org/) -->

<svg
   width="300mm"
   height="200mm"
   viewBox="0 0 300 200"
   version="1.1"
   id="SVGRoot"
   sodipodi:docname="downloadlastestgithub.svg"
   inkscape:version="1.2.2 (b0a8486541, 2022-12-01)"
   xmlns:inkscape="http://www.inkscape.org/namespaces/inkscape"
   xmlns:sodipodi="http://sodipodi.sourceforge.net/DTD/sodipodi-0.dtd"
   xmlns="http://www.w3.org/2000/svg"
   xmlns:svg="http://www.w3.org/2000/svg">
  <sodipodi:namedview
     id="namedview9983"
     pagecolor="#000000"
     bordercolor="#999999"
     borderopacity="1"
     inkscape:showpageshadow="0"
     inkscape:pageopacity="1.0"
     inkscape:pagecheckerboard="1"
     inkscape:deskcolor="#505050"
     inkscape:document-units="mm"
     showgrid="false"
     inkscape:zoom="1.2938725"
     inkscape:cx="452.90398"
     inkscape:cy="537.14721"
     inkscape:window-width="3836"
     inkscape:window-height="2067"
     inkscape:window-x="0"
     inkscape:window-y="0"
     inkscape:window-maximized="1"
     inkscape:current-layer="SVGRoot"
     inkscape:pageshadow="0" />
  <defs
     id="defs9978">
    <rect
       x="85.25466"
       y="49.185381"
       width="958.56842"
       height="243.74089"
       id="rect12168" />
    <rect
       x="346.48368"
       y="63.39449"
       width="870.03474"
       height="473.27266"
       id="rect10951" />
    <inkscape:perspective
       sodipodi:type="inkscape:persp3d"
       inkscape:vp_x="-11.856865 : 16.712757 : 1"
       inkscape:vp_y="0 : 1000 : 0"
       inkscape:vp_z="288.14314 : 16.712757 : 1"
       inkscape:persp3d-origin="138.14314 : -16.620576 : 1"
       id="perspective10599" />
    <clipPath
       clipPathUnits="userSpaceOnUse"
       id="clipPath20697-9">
      <path
         d="M 0,551.986 H 530.973 V 0 H 0 Z"
         id="path20695-2" />
    </clipPath>
    <clipPath
       clipPathUnits="userSpaceOnUse"
       id="clipPath21769-0">
      <path
         d="M 0,576 H 576 V 0 H 0 Z"
         id="path21767-6" />
    </clipPath>
  </defs>
  <g
     inkscape:groupmode="layer"
     id="layer2"
     inkscape:label="Layer 2">
    <text
       xml:space="preserve"
       transform="matrix(0.26458333,0,0,0.26458333,76.635832,94.375309)"
       id="text10949"
       style="font-weight:500;font-size:106.667px;font-family:Dubai;-inkscape-font-specification:'Dubai Medium';white-space:pre;shape-inside:url(#rect10951);fill:#00ffff;fill-opacity:0.589147;stroke-width:4.78866"><tspan
         x="346.48438"
         y="157.25937"
         id="tspan327">Release</tspan></text>
    <g
       id="g12164"
       transform="matrix(0.74250778,0,0,0.74250778,-22.641983,5.3391395)">
      <g
         id="g20693"
         clip-path="url(#clipPath20697-9)"
         transform="matrix(0.35277777,0,0,-0.35277777,-29.711557,215.02645)"
         style="fill:#00ffff;fill-opacity:0.589147">
        <g
           id="g20877"
           transform="translate(350.6088,217.5547)"
           style="fill:#00ffff;fill-opacity:0.589147">
          <path
             d="m 0,0 c -33.347,0 -60.388,-27.035 -60.388,-60.388 0,-26.68 17.303,-49.316 41.297,-57.301 3.018,-0.559 4.126,1.31 4.126,2.905 0,1.439 -0.056,6.197 -0.082,11.243 -16.8,-3.653 -20.345,7.125 -20.345,7.125 -2.747,6.979 -6.705,8.836 -6.705,8.836 -5.479,3.748 0.413,3.671 0.413,3.671 6.064,-0.426 9.257,-6.224 9.257,-6.224 5.386,-9.231 14.127,-6.562 17.573,-5.019 0.543,3.902 2.107,6.567 3.834,8.075 -13.413,1.526 -27.513,6.705 -27.513,29.844 0,6.592 2.359,11.979 6.222,16.208 -0.627,1.522 -2.694,7.664 0.586,15.982 0,0 5.071,1.622 16.61,-6.191 4.817,1.338 9.983,2.009 15.115,2.033 5.132,-0.024 10.302,-0.695 15.128,-2.033 11.526,7.813 16.59,6.191 16.59,6.191 3.287,-8.318 1.22,-14.46 0.593,-15.982 3.872,-4.229 6.214,-9.616 6.214,-16.208 0,-23.195 -14.127,-28.301 -27.574,-29.796 2.166,-1.874 4.096,-5.549 4.096,-11.183 0,-8.08 -0.069,-14.583 -0.069,-16.572 0,-1.608 1.086,-3.491 4.147,-2.898 23.982,7.994 41.263,30.622 41.263,57.294 C 60.388,-27.035 33.351,0 0,0"
             style="fill:#00ffff;fill-opacity:0.589147;fill-rule:evenodd;stroke:none"
             id="path20879" />
        </g>
        <g
           id="g20881"
           transform="translate(313.0932,130.8515)"
           style="fill:#00ffff;fill-opacity:0.589147">
          <path
             d="m 0,0 c -0.133,-0.301 -0.605,-0.391 -1.035,-0.184 -0.439,0.197 -0.684,0.606 -0.542,0.907 0.13,0.308 0.602,0.394 1.04,0.188 C -0.099,0.714 0.151,0.301 0,0"
             style="fill:#00ffff;fill-opacity:0.589147;fill-rule:nonzero;stroke:none"
             id="path20883" />
        </g>
        <g
           id="g20885"
           transform="translate(315.5395,128.123)"
           style="fill:#00ffff;fill-opacity:0.589147">
          <path
             d="M 0,0 C -0.288,-0.267 -0.852,-0.143 -1.233,0.279 -1.629,0.7 -1.702,1.264 -1.41,1.534 -1.113,1.801 -0.567,1.676 -0.172,1.255 0.224,0.829 0.301,0.27 0,0"
             style="fill:#00ffff;fill-opacity:0.589147;fill-rule:nonzero;stroke:none"
             id="path20887" />
        </g>
        <g
           id="g20889"
           transform="translate(317.9204,124.6455)"
           style="fill:#00ffff;fill-opacity:0.589147">
          <path
             d="M 0,0 C -0.37,-0.258 -0.976,-0.017 -1.35,0.52 -1.72,1.058 -1.72,1.702 -1.341,1.96 -0.967,2.218 -0.37,1.985 0.009,1.453 0.378,0.907 0.378,0.263 0,0"
             style="fill:#00ffff;fill-opacity:0.589147;fill-rule:nonzero;stroke:none"
             id="path20891" />
        </g>
        <g
           id="g20893"
           transform="translate(321.1821,121.2851)"
           style="fill:#00ffff;fill-opacity:0.589147">
          <path
             d="M 0,0 C -0.331,-0.365 -1.036,-0.267 -1.552,0.231 -2.08,0.718 -2.227,1.409 -1.896,1.774 -1.56,2.14 -0.851,2.037 -0.331,1.543 0.193,1.057 0.352,0.361 0,0"
             style="fill:#00ffff;fill-opacity:0.589147;fill-rule:nonzero;stroke:none"
             id="path20895" />
        </g>
        <g
           id="g20897"
           transform="translate(325.6821,119.334)"
           style="fill:#00ffff;fill-opacity:0.589147">
          <path
             d="m 0,0 c -0.147,-0.473 -0.825,-0.687 -1.509,-0.486 -0.683,0.207 -1.13,0.76 -0.992,1.238 0.142,0.477 0.824,0.7 1.513,0.485 C -0.306,1.031 0.142,0.481 0,0"
             style="fill:#00ffff;fill-opacity:0.589147;fill-rule:nonzero;stroke:none"
             id="path20899" />
        </g>
        <g
           id="g20901"
           transform="translate(330.6245,118.9726)"
           style="fill:#00ffff;fill-opacity:0.589147">
          <path
             d="m 0,0 c 0.017,-0.498 -0.563,-0.911 -1.281,-0.92 -0.722,-0.017 -1.307,0.387 -1.315,0.877 0,0.503 0.568,0.911 1.289,0.924 C -0.589,0.895 0,0.494 0,0"
             style="fill:#00ffff;fill-opacity:0.589147;fill-rule:nonzero;stroke:none"
             id="path20903" />
        </g>
        <g
           id="g20905"
           transform="translate(335.2231,119.7549)"
           style="fill:#00ffff;fill-opacity:0.589147">
          <path
             d="m 0,0 c 0.086,-0.485 -0.413,-0.984 -1.126,-1.117 -0.701,-0.129 -1.35,0.172 -1.439,0.653 -0.087,0.498 0.42,0.997 1.121,1.126 C -0.73,0.786 -0.091,0.494 0,0"
             style="fill:#00ffff;fill-opacity:0.589147;fill-rule:nonzero;stroke:none"
             id="path20907" />
        </g>
      </g>
      <g
         id="g21765"
         clip-path="url(#clipPath21769-0)"
         transform="matrix(0.35277777,0,0,-0.35277777,82.041813,211.85621)"
         style="fill:#00ffff;fill-opacity:0.589147">
        <g
           id="g21771"
           transform="translate(177.2812,151.0127)"
           style="fill:#00ffff;fill-opacity:0.589147">
          <path
             d="m 0,0 h -30.267 c -0.781,0 -1.415,-0.634 -1.415,-1.415 v -14.798 c 0,-0.781 0.634,-1.417 1.415,-1.417 h 11.807 v -18.385 c 0,0 -2.651,-0.904 -9.981,-0.904 -8.647,0 -20.727,3.16 -20.727,29.724 0,26.569 12.579,30.064 24.388,30.064 10.222,0 14.626,-1.799 17.428,-2.667 0.881,-0.269 1.695,0.608 1.695,1.389 l 3.377,14.298 c 0,0.366 -0.124,0.805 -0.54,1.104 -1.138,0.813 -8.081,4.697 -25.621,4.697 -20.205,0 -40.932,-8.596 -40.932,-49.921 0,-41.327 23.73,-47.485 43.727,-47.485 16.557,0 26.601,7.075 26.601,7.075 0.414,0.229 0.459,0.808 0.459,1.073 V -1.415 C 1.414,-0.634 0.781,0 0,0"
             style="fill:#00ffff;fill-opacity:0.589147;fill-rule:nonzero;stroke:none"
             id="path21773" />
        </g>
        <g
           id="g21775"
           transform="translate(333.2646,187.751)"
           style="fill:#00ffff;fill-opacity:0.589147">
          <path
             d="m 0,0 c 0,0.788 -0.624,1.423 -1.405,1.423 h -17.042 c -0.779,0 -1.411,-0.635 -1.411,-1.423 0,-0.003 0.004,-32.934 0.004,-32.934 H -46.418 V 0 c 0,0.788 -0.627,1.423 -1.407,1.423 h -17.041 c -0.775,0 -1.407,-0.635 -1.407,-1.423 v -89.177 c 0,-0.787 0.632,-1.427 1.407,-1.427 h 17.041 c 0.78,0 1.407,0.64 1.407,1.427 v 38.145 h 26.564 c 0,0 -0.046,-38.142 -0.046,-38.145 0,-0.787 0.631,-1.427 1.412,-1.427 h 17.082 c 0.78,0 1.404,0.64 1.406,1.427 z"
             style="fill:#00ffff;fill-opacity:0.589147;fill-rule:nonzero;stroke:none"
             id="path21777" />
        </g>
        <g
           id="g21779"
           transform="translate(209.4404,176.0498)"
           style="fill:#00ffff;fill-opacity:0.589147">
          <path
             d="m 0,0 c 0,6.136 -4.92,11.095 -10.99,11.095 -6.064,0 -10.987,-4.959 -10.987,-11.095 0,-6.131 4.923,-11.104 10.987,-11.104 C -4.92,-11.104 0,-6.131 0,0"
             style="fill:#00ffff;fill-opacity:0.589147;fill-rule:nonzero;stroke:none"
             id="path21781" />
        </g>
        <g
           id="g21783"
           transform="translate(208.2217,117.3857)"
           style="fill:#00ffff;fill-opacity:0.589147">
          <path
             d="m 0,0 v 41.164 c 0,0.782 -0.63,1.421 -1.41,1.421 h -16.988 c -0.78,0 -1.477,-0.804 -1.477,-1.585 v -58.977 c 0,-1.733 1.08,-2.249 2.478,-2.249 h 15.306 c 1.679,0 2.091,0.826 2.091,2.277 z"
             style="fill:#00ffff;fill-opacity:0.589147;fill-rule:nonzero;stroke:none"
             id="path21785" />
        </g>
        <g
           id="g21787"
           transform="translate(398.0322,159.8369)"
           style="fill:#00ffff;fill-opacity:0.589147">
          <path
             d="m 0,0 h -16.911 c -0.776,0 -1.407,-0.64 -1.407,-1.427 v -43.725 c 0,0 -4.297,-3.144 -10.395,-3.144 -6.098,0 -7.716,2.767 -7.716,8.737 v 38.132 c 0,0.787 -0.63,1.427 -1.406,1.427 h -17.164 c -0.774,0 -1.409,-0.64 -1.409,-1.427 v -41.018 c 0,-17.736 9.884,-22.075 23.481,-22.075 11.156,0 20.15,6.164 20.15,6.164 0,0 0.427,-3.248 0.622,-3.633 0.193,-0.384 0.698,-0.773 1.244,-0.773 l 10.919,0.049 c 0.774,0 1.409,0.64 1.409,1.424 L 1.411,-1.427 C 1.411,-0.64 0.779,0 0,0"
             style="fill:#00ffff;fill-opacity:0.589147;fill-rule:nonzero;stroke:none"
             id="path21789" />
        </g>
        <g
           id="g21791"
           transform="translate(437.584,111.5947)"
           style="fill:#00ffff;fill-opacity:0.589147">
          <path
             d="m 0,0 c -5.866,0.179 -9.845,2.841 -9.845,2.841 v 28.24 c 0,0 3.925,2.406 8.741,2.836 6.09,0.546 11.958,-1.294 11.958,-15.821 C 10.854,2.776 8.206,-0.247 0,0 m 6.67,50.245 c -9.605,0 -16.138,-4.285 -16.138,-4.285 v 30.196 c 0,0.788 -0.63,1.423 -1.406,1.423 h -17.091 c -0.777,0 -1.408,-0.635 -1.408,-1.423 v -89.177 c 0,-0.787 0.631,-1.426 1.41,-1.426 h 11.858 c 0.534,0 0.938,0.275 1.237,0.757 0.295,0.479 0.72,4.112 0.72,4.112 0,0 6.988,-6.623 20.217,-6.623 15.532,0 24.439,7.878 24.439,35.366 0,27.488 -14.226,31.08 -23.838,31.08"
             style="fill:#00ffff;fill-opacity:0.589147;fill-rule:nonzero;stroke:none"
             id="path21793" />
        </g>
        <g
           id="g21795"
           transform="translate(257.2017,159.9785)"
           style="fill:#00ffff;fill-opacity:0.589147">
          <path
             d="m 0,0 h -12.784 c 0,0 -0.019,16.885 -0.019,16.889 0,0.639 -0.329,0.959 -1.069,0.959 h -17.42 c -0.677,0 -1.041,-0.298 -1.041,-0.95 V -0.554 c 0,0 -8.73,-2.107 -9.32,-2.277 -0.588,-0.171 -1.021,-0.713 -1.021,-1.359 v -10.967 c 0,-0.789 0.63,-1.426 1.409,-1.426 h 8.932 v -26.384 c 0,-19.596 13.746,-21.521 23.021,-21.521 4.239,0 9.309,1.361 10.146,1.67 0.506,0.186 0.801,0.711 0.801,1.279 l 0.014,12.064 c 0,0.787 -0.665,1.424 -1.413,1.424 -0.745,0 -2.651,-0.303 -4.613,-0.303 -6.279,0 -8.407,2.919 -8.407,6.699 0,3.776 -10e-4,25.072 -10e-4,25.072 H 0 c 0.779,0 1.411,0.637 1.411,1.426 V -1.421 C 1.411,-0.634 0.779,0 0,0"
             style="fill:#00ffff;fill-opacity:0.589147;fill-rule:nonzero;stroke:none"
             id="path21797" />
        </g>
      </g>
    </g>
    <text
       xml:space="preserve"
       transform="matrix(0.26458333,0,0,0.26458333,5.4946447,34.512602)"
       id="text12166"
       style="font-weight:500;font-size:133.333px;font-family:Dubai;-inkscape-font-specification:'Dubai Medium';white-space:pre;shape-inside:url(#rect12168);fill:#00ffff;fill-opacity:0.589147;stroke-width:4.78866"><tspan
         x="85.253906"
         y="166.51592"
         id="tspan329">Download latest:</tspan></text>
  </g>
</svg>
