<?xml version="1.0" encoding="UTF-8" standalone="no"?>
<!-- Created with Inkscape (http://www.inkscape.org/) -->

<svg
   width="300mm"
   height="200mm"
   viewBox="0 0 300 200"
   version="1.1"
   id="SVGRoot"
   sodipodi:docname="makepkg.svg"
   inkscape:version="1.2.2 (b0a8486541, 2022-12-01)"
   xml:space="preserve"
   xmlns:inkscape="http://www.inkscape.org/namespaces/inkscape"
   xmlns:sodipodi="http://sodipodi.sourceforge.net/DTD/sodipodi-0.dtd"
   xmlns:xlink="http://www.w3.org/1999/xlink"
   xmlns="http://www.w3.org/2000/svg"
   xmlns:svg="http://www.w3.org/2000/svg"><sodipodi:namedview
     id="namedview15947"
     pagecolor="#000000"
     bordercolor="#999999"
     borderopacity="1"
     inkscape:showpageshadow="0"
     inkscape:pageopacity="1.0"
     inkscape:pagecheckerboard="1"
     inkscape:deskcolor="#505050"
     inkscape:document-units="mm"
     showgrid="false"
     inkscape:zoom="1.829812"
     inkscape:cx="419.71525"
     inkscape:cy="413.1572"
     inkscape:window-width="3836"
     inkscape:window-height="2067"
     inkscape:window-x="0"
     inkscape:window-y="0"
     inkscape:window-maximized="1"
     inkscape:current-layer="layer1"
     inkscape:pageshadow="0" /><defs
     id="defs15942"><rect
       x="346.48367"
       y="63.394489"
       width="870.03473"
       height="473.27267"
       id="rect10951" /><clipPath
       clipPathUnits="userSpaceOnUse"
       id="clipPath20697-9"><path
         d="M 0,551.986 H 530.973 V 0 H 0 Z"
         id="path20695-2" /></clipPath><clipPath
       clipPathUnits="userSpaceOnUse"
       id="clipPath21769-0"><path
         d="M 0,576 H 576 V 0 H 0 Z"
         id="path21767-6" /></clipPath><rect
       x="85.254662"
       y="49.185383"
       width="1019.7769"
       height="668.92119"
       id="rect12168" /><linearGradient
       x1="112.49854"
       y1="6.1372099"
       x2="112.49853"
       y2="129.3468"
       id="path1082_2_"
       gradientUnits="userSpaceOnUse"
       gradientTransform="translate(287,-83)"><stop
         id="stop193"
         style="stop-color:#ffffff;stop-opacity:0"
         offset="0" /><stop
         id="stop195"
         style="stop-color:#ffffff;stop-opacity:0.27450982"
         offset="1" /><midPointStop
         offset="0"
         style="stop-color:#FFFFFF"
         id="midPointStop197" /><midPointStop
         offset="0.5"
         style="stop-color:#FFFFFF"
         id="midPointStop199" /><midPointStop
         offset="1"
         style="stop-color:#000000"
         id="midPointStop201" /></linearGradient><linearGradient
       x1="541.33502"
       y1="104.50665"
       x2="606.91248"
       y2="303.14029"
       id="linearGradient2544"
       xlink:href="#path1082_2_"
       gradientUnits="userSpaceOnUse"
       gradientTransform="matrix(-0.3937741,0,0,0.393752,357.51969,122.00151)" /><linearGradient
       id="linearGradient3388"><stop
         id="stop3390"
         style="stop-color:#000000;stop-opacity:0"
         offset="0" /><stop
         id="stop3392"
         style="stop-color:#000000;stop-opacity:0.37113401"
         offset="1" /></linearGradient><linearGradient
       x1="490.72305"
       y1="237.72447"
       x2="490.72305"
       y2="183.9644"
       id="linearGradient4416"
       xlink:href="#linearGradient3388"
       gradientUnits="userSpaceOnUse"
       gradientTransform="matrix(0.749107,0,0,0.749107,-35.459862,91.44108)" /><rect
       x="85.254662"
       y="49.185383"
       width="1019.7769"
       height="668.9212"
       id="rect12168-2" /></defs><g
     inkscape:label="Layer 1"
     inkscape:groupmode="layer"
     id="layer1"><text
       xml:space="preserve"
       transform="matrix(0.26458333,0,0,0.26458333,-13.917171,-13.147275)"
       id="text12166"
       style="font-weight:500;font-size:133.333px;font-family:Dubai;-inkscape-font-specification:'Dubai Medium';white-space:pre;shape-inside:url(#rect12168);display:inline;fill:#00ffff;fill-opacity:0.589147;stroke-width:4.78866"><tspan
         x="85.253906"
         y="170.50193"
         id="tspan1096"><tspan
           style="font-weight:normal;font-family:'Noto Sans';-inkscape-font-specification:'Noto Sans'"
           id="tspan1094"> build it yourself 
</tspan></tspan><tspan
         x="85.253906"
         y="341.15416"
         id="tspan1100"><tspan
           style="font-weight:normal;font-family:'Noto Sans';-inkscape-font-specification:'Noto Sans'"
           id="tspan1098">on       </tspan></tspan></text><g
       transform="matrix(1.6011594,0,0,1.6344128,-448.41357,4.2111012)"
       id="g502"><g
         transform="matrix(0.678,0,0,0.678,452,49.2)"
         id="g496"><path
           d="m -127,-42.3 c 4.57,6.45 23.8,31.4 10.7,36.6 -6.12,2.81 -34,-1.65 -33.6,-0.921 -2,3.28 -3.59,5.92 -3.59,5.92 0,0 21.5,0.967 38.1,-1.27 23.7,-3.18 -4.88,-33.5 -11.6,-40.3 z"
           style="fill:#7f7fff;stroke-width:0.585"
           inkscape:connector-curvature="0"
           id="path490" /><path
           d="m -127,-42.3 c -1.52,0.209 -29.4,34.5 -29.4,34.5 0,0 2.01,0.57 6.58,1.23 1.48,-1.15 22.3,-36.2 22.9,-35.7 -0.0107,-0.0141 -0.028,-0.0193 -0.0522,-0.016 z"
           style="fill:#ff7f7f;stroke-width:0.585"
           inkscape:connector-curvature="0"
           id="path492" /><path
           d="m -127,-42.3 c -0.96,-0.156 -22.9,35.7 -22.9,35.7 0,0 19.9,2.1 28.1,1.96 23.1,-0.39 0.176,-30.6 -5.16,-37.7 -0.007,-0.007 -0.0151,-0.0108 -0.0248,-0.0124 z"
           style="fill:#7f3fbf;stroke-width:0.585"
           inkscape:connector-curvature="0"
           id="path494" /></g><path
         transform="matrix(0.179,0,0,0.179,345,18.5)"
         d="m 116,183 c -2.54,0 -4.6,2.05 -4.6,4.55 v 24.1 c 0.0501,2.46 2.1,4.5 4.6,4.5 h 2.49 c 2.44,-0.102 4.39,-2.05 4.44,-4.5 v -24.1 c 0,-2.46 -2,-4.45 -4.44,-4.55 h -0.0117 z M 9,183.314 c -0.818,0 -1.48,0.638 -1.54,1.41 l -0.00195,0.0254 v 31.1 h 7.74 c 1.2,0 1.93,-0.586 2.24,-1.14 l 0.0059,-0.0117 0.0059,-0.01 c 0.179,-0.359 0.689,-1.56 1.04,-2.36 l 0.35,-0.789 h -7.04 v -10.3 c 0,-0.0711 0.131,-0.203 0.203,-0.203 h 1.35 c 1.2,0 1.9,-0.613 2.2,-1.14 l 0.0059,-0.0117 0.0059,-0.01 c 0.0958,-0.191 0.249,-0.559 0.445,-1.02 0.196,-0.46 0.421,-0.986 0.598,-1.38 l 0.35,-0.789 h -5.15 v -8.78 c 0,-0.186 0.0165,-0.203 0.203,-0.203 h 2.6 c 1.21,0 1.95,-0.631 2.22,-1.23 l 1.44,-3.12 z m 15,0 v 32.5 h 4.35 v -13 l 2.35,10.6 c 0.0657,0.307 0.172,0.902 0.561,1.45 0.39,0.549 1.12,1.01 2.14,1.01 h 2.04 v -32.5 h -4.35 v 13.1 l -2.21,-10.9 v -0.002 c -0.0953,-0.477 -0.241,-1.05 -0.693,-1.5 -0.453,-0.453 -1.16,-0.701 -2.15,-0.701 z m 18.1,0 v 32.5 h 6.8 c 2.5,0 4.5,-2.01 4.55,-4.5 v -23.5 c -0.0501,-2.49 -2.06,-4.5 -4.55,-4.5 z m 21.1,0 c -0.818,0 -1.48,0.637 -1.55,1.41 l -0.002,0.0254 v 31.1 h 7.74 c 1.2,0 1.93,-0.586 2.24,-1.14 l 0.0059,-0.0117 0.0059,-0.01 c 0.179,-0.358 0.689,-1.56 1.04,-2.36 l 0.35,-0.789 h -7.04 v -10.3 c 0,-0.073 0.13,-0.203 0.201,-0.203 h 1.35 c 1.2,0 1.9,-0.614 2.2,-1.14 l 0.0059,-0.0117 0.0059,-0.01 c 0.0953,-0.19 0.251,-0.559 0.447,-1.02 0.197,-0.46 0.421,-0.986 0.598,-1.38 l 0.35,-0.789 h -5.15 v -8.78 c 0,-0.188 0.0168,-0.203 0.201,-0.203 h 2.6 c 1.21,0 1.95,-0.625 2.22,-1.22 l 0.002,-0.004 1.44,-3.12 z m 17.9,0 -0.0723,0.477 -4.86,32.1 h 4.69 l 2.34,-17.9 2.34,17.9 h 4.69 l -4.63,-30.4 v -0.002 c -0.0702,-0.445 -0.159,-0.964 -0.504,-1.42 -0.345,-0.458 -0.964,-0.756 -1.76,-0.756 z m 11.7,0 0.0996,0.646 4.49,29.2 v 0.004 c 0.0167,0.101 0.104,0.75 0.436,1.37 0.332,0.623 1.02,1.29 2.05,1.29 h 2.1 l 4.97,-32.5 h -4.37 l -2.71,17.8 -2.45,-16.1 -0.002,-0.006 c -0.211,-1.21 -0.974,-1.68 -1.5,-1.68 z m 38.7,0 c -0.799,0 -1.43,0.638 -1.5,1.41 l -0.002,0.0254 v 26.9 c 0,2.5 2.07,4.42 4.55,4.42 h 3.03 v -0.16 c 2.13,-0.31 3.86,-2 3.86,-4.26 v -28.3 h -4.35 v 27.7 c 0,0.639 -0.506,1.14 -1.15,1.14 h -0.492 c -0.64,0 -1.1,-0.488 -1.1,-1.14 v -27.7 z m 16.7,0 v 32.5 h 4.35 v -13.5 h 1.15 c 0.318,0 0.566,0.084 0.75,0.271 0.184,0.187 0.35,0.525 0.35,1.19 v 12.1 h 4.35 v -12.6 c 0,0 0.0279,-0.642 -0.123,-1.38 -0.107,-0.525 -0.385,-1.09 -0.807,-1.57 0.125,-0.12 0.325,-0.173 0.41,-0.311 0.224,-0.362 0.342,-0.759 0.414,-1.13 0.145,-0.74 0.105,-1.41 0.105,-1.41 v -9.66 c 0,-2.51 -2.05,-4.51 -4.51,-4.51 z m -30.8,3.63 h 0.467 c 0.64,0 1.14,0.491 1.14,1.19 v 22.9 c 0,0.699 -0.505,1.19 -1.14,1.19 H 117.4 c -0.655,-0.0312 -1.17,-0.549 -1.17,-1.19 v -22.9 c 0,-0.64 0.516,-1.16 1.17,-1.19 z m 35.2,0.492 h 1.15 c 0.328,0 0.609,0.0895 0.789,0.24 0.18,0.151 0.311,0.362 0.311,0.816 v 8.44 c 0,0.613 -0.151,0.867 -0.318,1.01 -0.167,0.146 -0.434,0.223 -0.781,0.223 h -1.15 z m -106,0.225 h 1.55 c 0.355,0 0.65,0.0931 0.834,0.244 0.184,0.151 0.312,0.359 0.312,0.812 v 21.7 c 0,0.481 -0.133,0.7 -0.316,0.854 -0.183,0.153 -0.475,0.246 -0.83,0.246 H 46.6 Z"
         style="color:#000000;font-variant-ligatures:normal;font-variant-position:normal;font-variant-caps:normal;font-variant-numeric:normal;font-variant-alternates:normal;font-feature-settings:normal;text-indent:0;text-decoration-line:none;text-decoration-style:solid;text-decoration-color:#000000;text-transform:none;text-orientation:mixed;dominant-baseline:auto;white-space:normal;shape-padding:0;isolation:auto;mix-blend-mode:normal;solid-color:#000000;fill:#280b0b;color-rendering:auto;image-rendering:auto;shape-rendering:auto"
         id="path498" /><path
         transform="matrix(0.179,0,0,0.179,345,18.5)"
         d="m 169,183 c -2.54,0 -4.6,2.05 -4.6,4.55 v 24.1 c 0.0501,2.46 2.1,4.5 4.6,4.5 h 2.49 c 2.44,-0.102 4.39,-2.05 4.44,-4.5 v -24.1 c 0,-2.46 -2,-4.45 -4.44,-4.55 h -0.0117 z m 18.3,0 c -2.57,0 -4.6,2.23 -4.6,4.73 v 3.2 c 0,0 -0.128,2.3 1.51,5.29 l 3.86,7.23 0.004,0.008 c 0,0 0.33,0.577 0.664,1.38 0.334,0.802 0.654,1.83 0.654,2.61 v 3.59 c 0,0.698 -0.506,1.19 -1.15,1.19 -0.64,0 -1.14,-0.504 -1.14,-1.14 v -6.34 l -0.789,0.35 c -0.405,0.18 -0.931,0.416 -1.39,0.617 -0.457,0.201 -0.894,0.381 -0.939,0.396 l -0.0508,0.0176 -0.043,0.0274 c -0.539,0.3 -1.19,1.03 -1.19,2.24 v 3.24 c 0.0501,2.44 2,4.44 4.44,4.54 h 2.04 c 2.54,0 4.6,-2.05 4.6,-4.55 v -3.96 c 0,0 0.129,-2.3 -1.5,-5.29 l -3.86,-7.28 -0.004,-0.01 c 0,0 -0.329,-0.563 -0.662,-1.35 -0.333,-0.79 -0.654,-1.8 -0.654,-2.58 v -3.01 c 0,-0.699 0.507,-1.19 1.15,-1.19 0.64,0 1.15,0.491 1.15,1.19 v 4.48 l 0.775,-0.328 c 0.871,-0.367 2.1,-0.934 2.41,-1.09 l 0.0117,-0.008 0.0117,-0.006 c 0.54,-0.3 1.18,-1.03 1.18,-2.24 v -1.21 c 0,-2.46 -1.96,-4.68 -4.45,-4.73 h -0.006 z m -17.4,3.95 h 0.467 c 0.64,0 1.14,0.491 1.14,1.19 v 22.9 c 0,0.699 -0.505,1.19 -1.14,1.19 H 169.9 c -0.656,-0.0312 -1.17,-0.549 -1.17,-1.19 v -22.9 c 0,-0.64 0.516,-1.16 1.17,-1.19 z"
         style="font-variant-ligatures:normal;font-variant-caps:normal;font-variant-numeric:normal;font-feature-settings:normal;fill:#7f7fff"
         id="path500" /></g><g
       transform="matrix(1.4190693,0,0,1.4190693,131.32853,-15.470811)"
       id="g628"><path
         d="m 47.0482,71.173 h 9.912 V 37.3063 h -9.912 z"
         fill="#35bf5c"
         id="path604" /><path
         d="m 35.0707,71.173 h 9.912 V 49.2835 h -9.912 z"
         fill="#35bf5c"
         id="path606" /><path
         d="m 0,0 v -96 h 28.002 v 67.903 H 62.048 V 0 Z"
         fill="#35bf5c"
         id="path608"
         transform="matrix(0.35278,0,0,-0.35278,23.09,37.31)" /><g
         clip-path="url(#a)"
         transform="matrix(0.11502429,0,0,-0.11502429,9.2185857,81.086186)"
         id="g626"><path
           d="m 0,0 c -2.107,1.196 -4.523,1.795 -7.251,1.795 -3.112,0 -5.876,-0.671 -8.292,-2.01 -1.707,-0.946 -3.129,-2.162 -4.299,-3.62 -1.075,1.616 -2.424,2.902 -4.065,3.835 -2.107,1.196 -4.523,1.795 -7.251,1.795 -2.825,0 -5.338,-0.671 -7.539,-2.01 -0.931,-0.567 -1.759,-1.247 -2.519,-1.999 -0.017,1.061 -0.347,1.92 -0.998,2.573 -0.671,0.67 -1.557,1.005 -2.657,1.005 -1.053,0 -1.927,-0.335 -2.62,-1.005 -0.695,-0.671 -1.041,-1.555 -1.041,-2.656 v -31.948 c 0,-1.054 0.346,-1.928 1.041,-2.621 0.693,-0.695 1.567,-1.041 2.62,-1.041 1.1,0 1.986,0.346 2.657,1.041 0.669,0.693 1.005,1.567 1.005,2.621 v 20.246 c 0,2.68 0.813,4.882 2.44,6.604 1.627,1.723 3.686,2.585 6.175,2.585 2.392,0 4.331,-0.73 5.815,-2.19 1.483,-1.46 2.226,-3.697 2.226,-6.712 v -20.533 c 0,-1.054 0.346,-1.928 1.041,-2.621 0.693,-0.695 1.567,-1.041 2.62,-1.041 1.1,0 1.986,0.346 2.656,1.041 0.67,0.693 1.006,1.567 1.006,2.621 v 20.246 c 0,2.68 0.8,4.882 2.405,6.604 1.602,1.723 3.649,2.585 6.138,2.585 2.393,0 4.331,-0.73 5.815,-2.19 1.483,-1.46 2.226,-3.697 2.226,-6.712 v -20.533 c 0,-1.054 0.346,-1.928 1.041,-2.621 0.693,-0.695 1.567,-1.041 2.62,-1.041 1.101,0 1.985,0.346 2.656,1.041 0.67,0.693 1.006,1.567 1.006,2.621 v 20.533 c 0,3.302 -0.587,6.113 -1.76,8.436 C 3.744,-2.956 2.105,-1.196 0,0"
           fill="#444444"
           transform="translate(167.17,67.67)"
           id="path610" /><path
           d="m 0,0 c -1.914,-1.174 -4.091,-1.76 -6.532,-1.76 -2.394,0 -4.559,0.586 -6.498,1.76 -1.938,1.172 -3.47,2.774 -4.595,4.81 -1.125,2.034 -1.687,4.319 -1.687,6.856 0,2.585 0.562,4.894 1.687,6.928 1.125,2.034 2.657,3.636 4.595,4.81 1.939,1.172 4.104,1.759 6.498,1.759 2.441,0 4.618,-0.587 6.532,-1.759 C 1.914,22.23 3.422,20.628 4.523,18.594 5.625,16.56 6.176,14.251 6.176,11.666 6.176,9.129 5.625,6.844 4.523,4.81 3.422,2.774 1.914,1.172 0,0 m 3.52,29.004 c -2.969,1.747 -6.319,2.621 -10.052,2.621 -3.734,0 -7.096,-0.874 -10.087,-2.621 -2.992,-1.747 -5.361,-4.128 -7.108,-7.144 -1.748,-3.014 -2.62,-6.414 -2.62,-10.194 0,-3.781 0.801,-7.168 2.405,-10.159 1.603,-2.991 3.793,-5.361 6.569,-7.108 2.775,-1.747 5.911,-2.62 9.405,-2.62 3.493,0 6.628,0.873 9.405,2.62 1.706,1.075 3.188,2.385 4.452,3.929 v -2.672 c 0,-1.053 0.345,-1.927 1.041,-2.621 0.693,-0.694 1.566,-1.041 2.619,-1.041 1.053,0 1.926,0.347 2.621,1.041 0.693,0.694 1.041,1.568 1.041,2.621 v 16.01 c 0,3.78 -0.873,7.18 -2.621,10.194 -1.748,3.016 -4.104,5.397 -7.07,7.144"
           fill="#444444"
           transform="translate(209.04,37.76)"
           id="path612" /><path
           d="m 0,0 v 17.661 c 0,3.973 -0.754,7.323 -2.262,10.051 -1.507,2.728 -3.565,4.798 -6.174,6.21 -2.609,1.411 -5.563,2.118 -8.866,2.118 -3.159,0 -6.007,-0.694 -8.544,-2.082 -1.386,-0.759 -2.596,-1.678 -3.661,-2.729 v 0.791 c 0,1.1 -0.335,1.985 -1.005,2.656 -0.671,0.67 -1.555,1.006 -2.656,1.006 -1.054,0 -1.928,-0.336 -2.621,-1.006 -0.694,-0.671 -1.041,-1.556 -1.041,-2.656 V 0 c 0,-1.054 0.347,-1.928 1.041,-2.621 0.693,-0.694 1.567,-1.041 2.621,-1.041 1.101,0 1.985,0.347 2.656,1.041 0.67,0.693 1.005,1.567 1.005,2.621 v 20.246 c 0,1.77 0.478,3.338 1.436,4.702 0.957,1.364 2.25,2.452 3.877,3.267 1.627,0.813 3.446,1.221 5.457,1.221 2.2,0 4.151,-0.42 5.85,-1.257 1.699,-0.838 3.051,-2.118 4.057,-3.841 1.005,-1.723 1.508,-3.948 1.508,-6.677 V 0 c 0,-1.054 0.346,-1.928 1.041,-2.621 0.692,-0.694 1.566,-1.041 2.62,-1.041 1.052,0 1.926,0.347 2.62,1.041 C -0.348,-1.928 0,-1.054 0,0"
           fill="#444444"
           transform="translate(266.69,33.42)"
           id="path614" /><path
           d="m 0,0 c -1.053,0 -1.927,-0.336 -2.62,-1.006 -0.694,-0.671 -1.041,-1.556 -1.041,-2.656 v -35.466 c 0,-1.866 -0.42,-3.518 -1.257,-4.954 -0.838,-1.436 -1.974,-2.572 -3.41,-3.41 -1.436,-0.837 -3.11,-1.256 -5.026,-1.256 -1.051,0 -1.913,-0.334 -2.584,-1.005 -0.669,-0.67 -1.005,-1.555 -1.005,-2.656 0,-1.053 0.336,-1.927 1.005,-2.621 0.671,-0.694 1.533,-1.041 2.584,-1.041 3.351,0 6.293,0.73 8.832,2.189 2.536,1.461 4.534,3.459 5.994,5.995 1.46,2.537 2.19,5.456 2.19,8.759 v 35.466 c 0,1.1 -0.336,1.985 -1.006,2.656 C 1.985,-0.336 1.101,0 0,0"
           fill="#444444"
           transform="translate(282.41,69.1)"
           id="path616" /><path
           d="m 0,0 c -1.292,0 -2.405,-0.467 -3.338,-1.4 -0.933,-0.934 -1.4,-2.046 -1.4,-3.338 0,-1.293 0.467,-2.406 1.4,-3.339 0.933,-0.934 2.046,-1.401 3.338,-1.401 1.292,0 2.405,0.467 3.339,1.401 0.932,0.933 1.399,2.046 1.399,3.339 0,1.292 -0.467,2.404 -1.399,3.338 C 2.405,-0.467 1.292,0 0,0"
           fill="#444444"
           transform="translate(282.41,82.97)"
           id="path618" /><path
           d="m 0,0 c -1.914,-1.174 -4.092,-1.76 -6.533,-1.76 -2.394,0 -4.559,0.586 -6.497,1.76 -1.939,1.172 -3.471,2.774 -4.595,4.81 -1.125,2.034 -1.687,4.319 -1.687,6.856 0,2.585 0.562,4.894 1.687,6.928 1.124,2.034 2.656,3.636 4.595,4.81 1.938,1.172 4.103,1.759 6.497,1.759 2.441,0 4.619,-0.587 6.533,-1.759 C 1.914,22.23 3.422,20.628 4.523,18.594 5.624,16.56 6.175,14.251 6.175,11.666 6.175,9.129 5.624,6.844 4.523,4.81 3.422,2.774 1.914,1.172 0,0 m 3.519,29.004 c -2.969,1.747 -6.319,2.621 -10.052,2.621 -3.733,0 -7.096,-0.874 -10.087,-2.621 -2.991,-1.747 -5.36,-4.128 -7.108,-7.144 -1.747,-3.014 -2.62,-6.414 -2.62,-10.194 0,-3.781 0.801,-7.168 2.406,-10.159 1.602,-2.991 3.793,-5.361 6.569,-7.108 2.774,-1.747 5.91,-2.62 9.404,-2.62 3.493,0 6.629,0.873 9.406,2.62 1.705,1.075 3.188,2.385 4.451,3.929 v -2.672 c 0,-1.053 0.346,-1.927 1.041,-2.621 0.693,-0.694 1.566,-1.041 2.62,-1.041 1.053,0 1.926,0.347 2.62,1.041 0.693,0.694 1.041,1.568 1.041,2.621 v 16.01 c 0,3.78 -0.873,7.18 -2.62,10.194 -1.748,3.016 -4.105,5.397 -7.071,7.144"
           fill="#444444"
           transform="translate(319.6,37.76)"
           id="path620" /><path
           d="m 0,0 c -1.412,0.934 -3.554,1.4 -6.425,1.4 -2.872,0 -5.505,-0.671 -7.897,-2.01 -1.619,-0.907 -2.994,-2.045 -4.164,-3.378 v 1.368 c 0,1.195 -0.3,2.093 -0.898,2.692 -0.598,0.598 -1.496,0.898 -2.692,0.898 -1.149,0 -2.034,-0.313 -2.656,-0.934 -0.622,-0.623 -0.934,-1.508 -0.934,-2.656 v -32.092 c 0,-1.197 0.312,-2.095 0.934,-2.692 0.622,-0.599 1.507,-0.898 2.656,-0.898 1.196,0 2.094,0.311 2.692,0.934 0.598,0.621 0.898,1.508 0.898,2.656 v 20.964 c 0,2.2 0.706,4.02 2.118,5.456 1.411,1.436 3.338,2.416 5.779,2.943 2.441,0.527 5.193,0.478 8.256,-0.143 0.622,-0.144 1.196,-0.168 1.724,-0.071 0.525,0.094 0.992,0.322 1.399,0.681 0.406,0.36 0.683,0.873 0.826,1.544 C 1.95,-2.046 1.412,-0.934 0,0"
           fill="#444444"
           transform="translate(365.8,68.13)"
           id="path622" /><path
           d="m 0,0 c -1.077,-2.011 -2.573,-3.59 -4.487,-4.738 -1.915,-1.149 -4.117,-1.724 -6.606,-1.724 -2.489,0 -4.69,0.575 -6.604,1.724 -1.915,1.148 -3.423,2.727 -4.524,4.738 -1.101,2.01 -1.65,4.331 -1.65,6.964 0,2.632 0.549,4.965 1.65,7 1.101,2.034 2.609,3.626 4.524,4.774 1.914,1.149 4.115,1.723 6.604,1.723 2.489,0 4.691,-0.574 6.606,-1.723 1.914,-1.148 3.41,-2.74 4.487,-4.774 1.076,-2.035 1.615,-4.368 1.615,-7 C 1.615,4.331 1.076,2.01 0,0 m 6.103,17.338 c -1.701,2.991 -4.034,5.337 -7,7.036 -2.969,1.698 -6.367,2.549 -10.196,2.549 -3.876,0 -7.299,-0.851 -10.265,-2.549 -2.969,-1.699 -5.302,-4.045 -7,-7.036 -1.7,-2.991 -2.549,-6.45 -2.549,-10.374 0,-3.877 0.849,-7.312 2.549,-10.303 1.698,-2.991 4.031,-5.337 7,-7.035 2.966,-1.7 6.389,-2.549 10.265,-2.549 3.877,0 7.299,0.849 10.267,2.549 2.968,1.698 5.288,4.044 6.964,7.035 1.674,2.991 2.512,6.426 2.512,10.303 0,3.924 -0.849,7.383 -2.547,10.374"
           fill="#444444"
           transform="translate(405.78,42.47)"
           id="path624" /></g></g><g
       transform="matrix(0.263566,0,0,0.263566,33.625828,18.968099)"
       id="g2424"><path
         d="m 162.51515,65.709648 c -8.45709,20.73453 -13.55799,34.297352 -22.97385,54.415522 5.7731,6.11948 12.85931,13.24593 24.36729,21.29458 -12.37221,-5.09109 -20.81157,-10.20242 -27.11844,-15.50646 -12.0505,25.14523 -30.93018,60.96349 -69.243121,129.80406 30.112687,-17.38458 53.455511,-28.10235 75.209891,-32.19198 -0.93414,-4.01773 -1.46524,-8.36369 -1.42916,-12.89823 l 0.0357,-0.96468 c 0.47781,-19.2924 10.51371,-34.12826 22.40218,-33.12094 11.88848,1.00732 21.12927,17.4729 20.65146,36.76531 -0.0899,3.63022 -0.49934,7.12245 -1.21479,10.36146 21.51819,4.20934 44.61141,14.89968 74.31666,32.04906 -5.85729,-10.78369 -11.08544,-20.5044 -16.07812,-29.76239 -7.86429,-6.09535 -16.06714,-14.02848 -32.79938,-22.61657 11.50078,2.98839 19.73519,6.43619 26.15375,10.29 -50.76203,-94.51003 -54.87267,-107.06846 -72.2801,-147.918742 z"
         id="path2518"
         style="fill:#1793d1;fill-opacity:1;fill-rule:evenodd;stroke:none;stroke-width:1.14333" /><g
         id="g733"
         transform="matrix(0.4120356,0,0,0.4120356,-26.685512,182.12272)"><g
           transform="matrix(0.6378586,0,0,0.6378586,36.486487,2.17139)"
           id="g2809"
           style="fill:#4d4d4d;fill-opacity:1"><path
             d="m 339.96875,309.09375 c -14.47141,-0.0239 -26.4812,2.94367 -31.125,4.5625 l -4.78125,25.8125 c -0.0116,0.0951 23.79543,-6.34855 34.28125,-5.96875 17.36158,0.62381 18.95948,6.63541 18.65625,14.75 0.29595,0.47462 -4.47933,-7.33192 -19.5,-7.59375 -18.94961,-0.32687 -45.69284,6.70947 -45.65625,35.3125 -0.51086,32.17412 24.03361,41.63882 40.75,41.8125 15.02821,-0.27364 22.0777,-5.69136 25.9375,-8.59375 5.07124,-5.30236 10.87308,-10.63447 16.40625,-17.03125 -5.23567,9.51278 -9.77472,16.0898 -14.5,21.125 v 4.25 l 22.84375,-3.84375 0.15625,-62.09375 c -0.23141,-8.78839 5.04123,-42.41827 -43.46875,-42.5 z m -3.28125,54.0625 c 9.46889,0.12995 20.32788,4.79708 20.34375,16.03125 0.049,10.21821 -12.80005,15.71183 -21.15625,15.625 -8.35976,-0.0868 -19.45093,-6.56982 -19.5,-16.53125 0.16016,-8.90444 10.45953,-15.35418 20.3125,-15.125 z"
             id="path2284"
             style="fill:#4d4d4d;fill-opacity:1;fill-rule:evenodd;stroke:none" /><path
             d="m 398.50106,314.83145 -0.15505,102.82693 26.61213,-5.12724 0.0449,-58.30157 c 0.006,-8.68089 12.40554,-18.82451 27.9627,-18.66287 3.30202,-5.97408 9.5087,-21.24219 11.02088,-24.71514 -34.75649,-0.0833 -35.19897,9.98993 -41.24398,14.94517 -0.0631,-9.45285 -0.0213,-15.12741 -0.0213,-15.12741 l -24.2202,4.16213 z"
             id="path2286"
             style="fill:#4d4d4d;fill-opacity:1;fill-rule:evenodd;stroke:none" /><path
             d="m 548.2688,328.33058 c -0.25696,-0.12068 -13.87938,-15.93419 -41.26638,-16.0589 -25.65249,-0.42638 -54.42578,9.51895 -54.88631,52.5328 0.22457,37.81852 27.6402,52.59809 55.0314,52.88627 29.31292,0.30451 40.97654,-18.32947 41.67615,-18.79124 -3.49762,-3.0321 -16.59792,-16.0131 -16.59792,-16.0131 0,0 -8.18236,11.65102 -24.05802,11.79913 -15.87942,0.1512 -29.68245,-12.27325 -29.87805,-29.60905 -0.20349,-17.33595 12.68881,-26.72821 29.99725,-27.48687 14.98466,-0.003 23.6297,9.67334 23.6297,9.67334 z"
             id="path2288"
             style="fill:#4d4d4d;fill-opacity:1;fill-rule:evenodd;stroke:none" /><path
             d="m 581.8125,278.84375 -25.125,5.90625 0.1875,133.9375 24.75,-4.46875 0.28125,-63.03125 c 0.0529,-6.60927 9.56127,-16.75916 25.4375,-16.4375 15.17973,0.15775 18.57236,10.11767 18.53125,11.375 l 0.4375,72.96875 24.40625,-4.3125 0.0937,-77.375 c 0.1607,-7.44539 -16.30833,-23.16954 -42.78125,-23.28125 -12.58087,0.0202 -19.54815,2.86825 -23.09375,4.96875 -6.06656,4.68565 -12.9998,9.17543 -19.8125,14.90625 6.29809,-8.09099 11.58551,-13.68516 16.75,-17.84375 l -0.0625,-37.3125 z"
             id="path2290"
             style="fill:#4d4d4d;fill-opacity:1;fill-rule:evenodd;stroke:none" /></g><g
           transform="matrix(0.9443373,0,0.01336345,0.9443373,78.345657,-412.48879)"
           id="g5326"
           style="fill:#1793d1;fill-opacity:1;stroke:none"><path
             d="m 400.67581,629.79609 7.68167,-1.91575 -0.92851,91.20792 -7.79574,1.32426 z"
             id="path2292"
             style="fill:#1793d1;fill-opacity:1;fill-rule:evenodd;stroke:none" /><path
             d="m 421.10266,657.01757 6.75064,-2.9867 -0.86808,65.39931 -6.49779,1.33915 z m -1.26059,-23.58316 5.47167,-4.41533 4.42261,4.99952 -5.47558,4.53221 z"
             id="path2294"
             style="fill:#1793d1;fill-opacity:1;fill-rule:evenodd;stroke:none" /><path
             d="m 440.44273,655.82614 7.67755,-1.56201 -0.1573,13.6722 c -0.007,0.58717 4.4194,-15.27364 24.68502,-14.92094 19.67986,0.10952 22.68401,15.34634 22.5291,18.76237 l -0.43759,48.0783 -6.73044,1.45631 0.63316,-47.489 c 0.0974,-1.38684 -2.88144,-13.11441 -16.78906,-13.15754 -13.90509,-0.0404 -23.68364,10.10048 -23.75821,16.57937 l -0.48127,41.83477 -7.80388,2.0313 z"
             id="path2296"
             style="fill:#1793d1;fill-opacity:1;fill-rule:evenodd;stroke:none" /><path
             d="m 561.53301,720.20203 -7.6776,1.56186 0.15737,-13.67198 c 0.007,-0.58742 -4.42201,15.27361 -24.68504,14.92086 -19.67983,-0.10944 -22.68399,-15.34626 -22.52908,-18.76229 l 0.43757,-48.07861 8.15674,-1.64226 -0.54644,47.48988 c -0.0149,1.29682 1.36845,13.29979 15.27604,13.3426 13.90511,0.0405 23.76622,-8.37359 24.01453,-21.04416 l 0.43105,-37.46902 7.5978,-1.93195 z"
             id="path2298"
             style="fill:#1793d1;fill-opacity:1;fill-rule:evenodd;stroke:none" /><path
             d="m 577.45461,655.28678 -5.42715,4.20017 20.19894,26.93328 -22.39092,31.11622 5.63499,4.226 21.04365,-28.8967 20.8779,29.58159 5.32727,-4.20103 -22.37578,-31.62866 18.56963,-25.5775 -5.53193,-4.73429 -16.92109,23.66778 z"
             id="path2300"
             style="fill:#1793d1;fill-opacity:1;fill-rule:evenodd;stroke:none" /></g><g
           id="text2634"
           style="font-style:normal;font-weight:normal;font-size:8.44138px;font-family:'DejaVu Sans Mono';fill:#1793d1;fill-opacity:1;stroke:none"><path
             d="m 685.46692,263.83624 v -5.32944 h -1.99082 v -0.71307 h 4.7895 v 0.71307 h -1.99906 v 5.32944 h -0.79962"
             id="path3945"
             style="fill:#1793d1;fill-opacity:1" /><path
             d="m 689.0982,263.83624 v -6.04251 h 1.20355 l 1.43026,4.2784 c 0.13189,0.39843 0.22806,0.69658 0.28852,0.89442 0.0687,-0.21983 0.17586,-0.5427 0.3215,-0.96862 l 1.44674,-4.2042 h 1.07578 v 6.04251 h -0.77077 v -5.05741 l -1.75587,5.05741 h -0.72131 l -1.74763,-5.14396 v 5.14396 h -0.77077"
             id="path3947"
             style="fill:#1793d1;fill-opacity:1" /></g></g><g
         id="text2638"
         style="font-style:normal;font-weight:normal;font-size:8.2513px;font-family:'DejaVu Sans Mono';fill:#1793d1;fill-opacity:1;stroke:none"
         transform="translate(18.616029,-74.941448)"><path
           d="m 239.84053,313.69965 v -5.20945 h -1.94598 v -0.697 h 4.68164 v 0.697 h -1.95404 v 5.20945 h -0.78162"
           id="path3940"
           style="fill:#1793d1;fill-opacity:1" /><path
           d="m 243.39004,313.69965 v -5.90645 h 1.17646 l 1.39805,4.18205 c 0.12892,0.38947 0.22293,0.6809 0.28202,0.87429 0.0671,-0.21488 0.1719,-0.53048 0.31426,-0.94681 l 1.41417,-4.10953 h 1.05155 v 5.90645 h -0.75341 v -4.94353 l -1.71634,4.94353 h -0.70506 l -1.70828,-5.02814 v 5.02814 h -0.75342"
           id="path3942"
           style="fill:#1793d1;fill-opacity:1" /></g></g><g
       transform="matrix(0.9662629,0,0,0.9662629,194.37656,15.795877)"
       id="g863"><path
         d="m 53.287457,70.560462 c -0.393509,0 -0.713003,0.123071 -0.958945,0.369013 -0.245946,0.245932 -0.368743,0.565444 -0.368743,0.95894 0,0.393491 0.122822,0.713003 0.368743,0.95894 0.245942,0.245937 0.565436,0.369013 0.958945,0.369013 0.393478,0 0.713818,-0.123087 0.959759,-0.369013 0.245927,-0.245937 0.369005,-0.565449 0.369005,-0.95894 0,-0.393496 -0.123084,-0.713008 -0.369005,-0.95894 -0.245941,-0.245937 -0.566281,-0.369013 -0.959759,-0.369013 z m -9.561687,0.786935 v 9.716574 c 0,1.278856 0.278129,2.196555 0.835579,2.753995 0.573842,0.557451 1.509015,0.836395 2.804265,0.836395 h 1.327949 v -1.574143 h -1.327949 c -0.672221,0 -1.155929,-0.155594 -1.451048,-0.467108 -0.278733,-0.311519 -0.463156,-0.829153 -0.41792,-1.549139 v -4.42895 h 3.196917 V 75.060878 H 45.496646 V 71.347397 Z M 23.4152,74.864143 v 1.549686 h 4.393084 c 0.70501,0 1.270406,0.220887 1.696693,0.663569 0.426287,0.426282 0.639927,0.983891 0.639927,1.672505 v 0.149184 c -0.409891,-0.278728 -0.901655,-0.499614 -1.475501,-0.663569 -0.573847,-0.163949 -1.132002,-0.246463 -1.673052,-0.246463 h -1.573596 c -1.213269,0 -2.189019,0.311456 -2.92682,0.934489 -0.737801,0.623027 -1.106762,1.451202 -1.106762,2.492319 0,1.041123 0.352844,1.877711 1.057849,2.500744 0.721411,0.623027 1.679945,0.934483 2.876819,0.934483 h 1.475775 c 0.655818,0 1.287601,-0.172257 1.894243,-0.516562 0.623033,-0.344304 1.122863,-0.811891 1.499958,-1.402132 v 1.721965 h 1.672505 v -5.904458 c 0,-1.164082 -0.377022,-2.098445 -1.131218,-2.80345 -0.737801,-0.721405 -1.713546,-1.08231 -2.92682,-1.08231 z m 12.057271,0.196735 v 9.593483 h 1.770872 v -4.379228 c 0,-1.098501 0.319517,-1.976168 0.958947,-2.631991 0.65582,-0.672219 1.508487,-1.008121 2.557805,-1.008121 v -1.574143 c -0.721403,0 -1.417939,0.180313 -2.09016,0.541018 -0.65582,0.360701 -1.147585,0.828287 -1.475499,1.402133 v -1.943151 z m 16.930235,0 v 9.593483 h 1.770312 v -9.593483 z m 4.663182,0 4.25313,4.796607 -4.25313,4.796876 h 2.366228 l 3.06975,-3.462676 3.070574,3.462676 h 2.365956 l -4.252873,-4.796876 4.252873,-4.796607 H 65.57244 l -3.070574,3.462675 -3.06975,-3.462675 z m -31.643133,4.477863 h 1.573596 c 0.606637,0 1.197032,0.09809 1.770872,0.294829 0.590242,0.18035 1.049767,0.42624 1.377681,0.737754 v 0.123092 c -0.213146,0.786987 -0.623216,1.41877 -1.229859,1.894238 -0.606632,0.475479 -1.295109,0.712755 -2.065701,0.712755 h -1.525503 c -0.655818,0 -1.179826,-0.17171 -1.573323,-0.51602 -0.393491,-0.34431 -0.590199,-0.803877 -0.590199,-1.369526 0,-0.565648 0.204769,-1.016255 0.614656,-1.36056 0.426287,-0.344309 0.975561,-0.516562 1.64778,-0.516562 z"
         fill="#10a0cc"
         id="path847"
         style="stroke-width:0.512528" /><path
         d="M 45.002437,22.756188 36.759215,39.657766 59.445581,52.368814 Z M 34.268966,44.763923 21.622071,70.694454 59.149736,55.190427 Z m 27.655732,12.688241 -11.83572,6.794774 18.294359,6.447516 z"
         fill="#10a0cc"
         id="path849" /><path
         d="m 57.679321,63.480331 4.245388,-6.028659 6.458628,13.242772 z"
         fill="url(#a)"
         id="path851" /><path
         d="m 21.622071,70.694454 26.290612,-15.57057 11.237011,0.06669 z"
         fill="url(#c)"
         id="path853" /><path
         d="M 59.445653,52.36864 36.75941,39.657397 42.652714,37.387452 Z"
         fill="url(#e)"
         id="path855" /><path
         d="M 68.383337,70.694454 50.088998,64.247132 57.679321,63.480331 Z"
         fill="url(#f)"
         id="path857" /><path
         d="M 21.622071,70.694454 47.912683,55.123884 34.268812,44.764026 Z"
         fill="url(#g)"
         id="path859" /><path
         d="M 59.445643,52.36864 42.652714,37.387452 45.002437,22.756188 Z"
         fill="url(#h)"
         id="path861" /></g><text
       xml:space="preserve"
       transform="matrix(0.26458333,0,0,0.26458333,-10.731324,86.686175)"
       id="text12166-9"
       style="font-weight:500;font-size:74.6667px;font-family:Dubai;-inkscape-font-specification:'Dubai Medium';white-space:pre;shape-inside:url(#rect12168-2);display:inline;fill:#00ffff;fill-opacity:0.589147;stroke-width:4.78866"><tspan
         x="85.253906"
         y="117.12293"
         id="tspan1104"><tspan
           style="font-weight:normal;font-family:'Noto Sans';-inkscape-font-specification:'Noto Sans'"
           id="tspan1102">and other pacman based </tspan></tspan><tspan
         x="85.253906"
         y="212.68848"
         id="tspan1108"><tspan
           style="font-weight:normal;font-family:'Noto Sans';-inkscape-font-specification:'Noto Sans'"
           id="tspan1106">distros (which have dotnet </tspan></tspan><tspan
         x="85.253906"
         y="308.25403"
         id="tspan1112"><tspan
           style="font-weight:normal;font-family:'Noto Sans';-inkscape-font-specification:'Noto Sans'"
           id="tspan1110">available and AUR support) </tspan></tspan></text><text
       xml:space="preserve"
       style="font-weight:bold;font-size:3.52777px;font-family:'Noto Sans';-inkscape-font-specification:'Noto Sans, Bold';fill:#333333;stroke-width:0.238125;stroke-linecap:square;paint-order:stroke markers fill"
       x="131.87148"
       y="241.04137"
       id="text931"><tspan
         sodipodi:role="line"
         id="tspan929"
         style="stroke-width:0.238125"></tspan></text></g></svg>
