<svg width="1024px" height="1024px" viewBox="0 0 1024 1024" version="1.1" xmlns:xlink="http://www.w3.org/1999/xlink" xmlns="http://www.w3.org/2000/svg">
  <defs>
    <path d="M0 0L1024 0L1024 1024L0 1024L0 0Z" id="path_1" />
    <clipPath id="clip_1">
      <use xlink:href="#path_1" />
    </clipPath>
  </defs>
  <g id="Icon 1024" clip-path="url(#clip_1)">
    <path d="M0 0L1024 0L1024 1024L0 1024L0 0Z" id="Icon-1024" fill="#262626" fill-opacity="0.25882354" fill-rule="evenodd" stroke="none" />
    <path d="M703 512L931 512L931 912.727L703 912.727L703 512Z" id="Rectangle" fill="#FFCDD2" fill-rule="evenodd" stroke="none" />
    <path d="M32 46L728 46L728 489L32 489L32 46Z" id="Rectangle" fill="#FFCDD2" fill-rule="evenodd" stroke="none" />
    <g id="Group" transform="translate(703 571.11115)">
      <path d="M0 114C0 51.0395 51.0395 0 114 0C176.96 0 228 51.0395 228 114C228 176.96 176.96 228 114 228C51.0395 228 0 176.96 0 114Z" id="Oval" fill="#0048FF" fill-rule="evenodd" stroke="none" />
      <path d="M81.2695 114.111C81.2695 95.9733 95.9733 81.2695 114.111 81.2695C132.249 81.2695 146.953 95.9733 146.953 114.111C146.953 132.249 132.249 146.953 114.111 146.953C95.9733 146.953 81.2695 132.249 81.2695 114.111Z" id="Oval-2" fill="#00FF66" fill-rule="evenodd" stroke="none" />
    </g>
    <g id="Group" transform="translate(53 63)">
      <path d="M0 81.5C0 36.4888 36.4888 0 81.5 0C126.511 0 163 36.4888 163 81.5C163 126.511 126.511 163 81.5 163C36.4888 163 0 126.511 0 81.5Z" id="Oval" fill="#0048FF" fill-rule="evenodd" stroke="none" />
      <path d="M58.1006 81.5796C58.1006 68.6125 68.6125 58.1006 81.5796 58.1006C94.5467 58.1006 105.059 68.6125 105.059 81.5796C105.059 94.5467 94.5467 105.059 81.5796 105.059C68.6125 105.059 58.1006 94.5467 58.1006 81.5796Z" id="Oval-2" fill="#00FF66" fill-rule="evenodd" stroke="none" />
    </g>
    <path d="M223.999 63L695.001 63Q695.197 63 695.393 63.0096Q695.59 63.0193 695.785 63.0385Q695.98 63.0578 696.175 63.0866Q696.369 63.1154 696.561 63.1537Q696.754 63.192 696.945 63.2397Q697.135 63.2874 697.323 63.3444Q697.511 63.4014 697.696 63.4676Q697.881 63.5337 698.062 63.6089Q698.243 63.684 698.421 63.768Q698.598 63.8519 698.772 63.9445Q698.945 64.0371 699.113 64.138Q699.282 64.239 699.445 64.3481Q699.608 64.4572 699.766 64.5741Q699.924 64.6911 700.075 64.8157Q700.227 64.9403 700.373 65.0721Q700.518 65.204 700.657 65.3428Q700.796 65.4817 700.928 65.6272Q701.06 65.7727 701.184 65.9245Q701.309 66.0763 701.426 66.234Q701.543 66.3917 701.652 66.555Q701.761 66.7183 701.862 66.8867Q701.963 67.0551 702.056 67.2283Q702.148 67.4015 702.232 67.579Q702.316 67.7565 702.391 67.9379Q702.466 68.1193 702.532 68.3042Q702.599 68.4891 702.656 68.677Q702.713 68.8649 702.76 69.0554Q702.808 69.2459 702.846 69.4385Q702.885 69.6311 702.913 69.8253Q702.942 70.0195 702.961 70.215Q702.981 70.4104 702.99 70.6065Q703 70.8026 703 70.999L703 113.001Q703 113.197 702.99 113.393Q702.981 113.59 702.961 113.785Q702.942 113.98 702.913 114.175Q702.885 114.369 702.846 114.562Q702.808 114.754 702.76 114.945Q702.713 115.135 702.656 115.323Q702.599 115.511 702.532 115.696Q702.466 115.881 702.391 116.062Q702.316 116.243 702.232 116.421Q702.148 116.599 702.056 116.772Q701.963 116.945 701.862 117.113Q701.761 117.282 701.652 117.445Q701.543 117.608 701.426 117.766Q701.309 117.924 701.184 118.076Q701.06 118.227 700.928 118.373Q700.796 118.518 700.657 118.657Q700.518 118.796 700.373 118.928Q700.227 119.06 700.075 119.184Q699.924 119.309 699.766 119.426Q699.608 119.543 699.445 119.652Q699.282 119.761 699.113 119.862Q698.945 119.963 698.772 120.055Q698.598 120.148 698.421 120.232Q698.243 120.316 698.062 120.391Q697.881 120.466 697.696 120.532Q697.511 120.599 697.323 120.656Q697.135 120.713 696.945 120.76Q696.754 120.808 696.561 120.846Q696.369 120.885 696.175 120.913Q695.98 120.942 695.785 120.961Q695.59 120.981 695.393 120.99Q695.197 121 695.001 121L223.999 121Q223.803 121 223.606 120.99Q223.41 120.981 223.215 120.961Q223.02 120.942 222.825 120.913Q222.631 120.885 222.438 120.846Q222.246 120.808 222.055 120.76Q221.865 120.713 221.677 120.656Q221.489 120.599 221.304 120.532Q221.119 120.466 220.938 120.391Q220.756 120.316 220.579 120.232Q220.401 120.148 220.228 120.055Q220.055 119.963 219.887 119.862Q219.718 119.761 219.555 119.652Q219.392 119.543 219.234 119.426Q219.076 119.309 218.924 119.184Q218.773 119.06 218.627 118.928Q218.482 118.796 218.343 118.657Q218.204 118.518 218.072 118.373Q217.94 118.227 217.816 118.076Q217.691 117.924 217.574 117.766Q217.457 117.608 217.348 117.445Q217.239 117.282 217.138 117.113Q217.037 116.945 216.945 116.772Q216.852 116.599 216.768 116.421Q216.684 116.243 216.609 116.062Q216.534 115.881 216.468 115.696Q216.401 115.511 216.344 115.323Q216.287 115.135 216.24 114.945Q216.192 114.754 216.154 114.562Q216.115 114.369 216.087 114.175Q216.058 113.98 216.039 113.785Q216.019 113.59 216.01 113.393Q216 113.197 216 113.001L216 70.999Q216 70.8026 216.01 70.6065Q216.019 70.4104 216.039 70.215Q216.058 70.0195 216.087 69.8253Q216.115 69.6311 216.154 69.4385Q216.192 69.2459 216.24 69.0554Q216.287 68.8649 216.344 68.677Q216.401 68.4891 216.468 68.3042Q216.534 68.1193 216.609 67.9379Q216.684 67.7565 216.768 67.579Q216.852 67.4015 216.944 67.2283Q217.037 67.0551 217.138 66.8867Q217.239 66.7183 217.348 66.555Q217.457 66.3917 217.574 66.234Q217.691 66.0763 217.816 65.9245Q217.94 65.7727 218.072 65.6272Q218.204 65.4817 218.343 65.3428Q218.482 65.204 218.627 65.0721Q218.773 64.9403 218.924 64.8157Q219.076 64.6911 219.234 64.5741Q219.392 64.4572 219.555 64.3481Q219.718 64.239 219.887 64.138Q220.055 64.0371 220.228 63.9445Q220.401 63.8519 220.579 63.768Q220.756 63.684 220.938 63.6089Q221.119 63.5337 221.304 63.4676Q221.489 63.4014 221.677 63.3444Q221.865 63.2874 222.055 63.2397Q222.246 63.192 222.438 63.1537Q222.631 63.1154 222.825 63.0866Q223.02 63.0578 223.215 63.0385Q223.41 63.0193 223.606 63.0096Q223.803 63 223.999 63Z" id="Rectangle-2" fill="#F44336" fill-rule="evenodd" stroke="none" />
    <path d="M567.999 144L695.001 144Q695.197 144 695.393 144.01Q695.59 144.019 695.785 144.039Q695.98 144.058 696.175 144.087Q696.369 144.115 696.561 144.154Q696.754 144.192 696.945 144.24Q697.135 144.287 697.323 144.344Q697.511 144.401 697.696 144.468Q697.881 144.534 698.062 144.609Q698.243 144.684 698.421 144.768Q698.598 144.852 698.772 144.945Q698.945 145.037 699.113 145.138Q699.282 145.239 699.445 145.348Q699.608 145.457 699.766 145.574Q699.924 145.691 700.075 145.816Q700.227 145.94 700.373 146.072Q700.518 146.204 700.657 146.343Q700.796 146.482 700.928 146.627Q701.06 146.773 701.184 146.924Q701.309 147.076 701.426 147.234Q701.543 147.392 701.652 147.555Q701.761 147.718 701.862 147.887Q701.963 148.055 702.056 148.228Q702.148 148.401 702.232 148.579Q702.316 148.756 702.391 148.938Q702.466 149.119 702.532 149.304Q702.599 149.489 702.656 149.677Q702.713 149.865 702.76 150.055Q702.808 150.246 702.846 150.438Q702.885 150.631 702.913 150.825Q702.942 151.02 702.961 151.215Q702.981 151.41 702.99 151.607Q703 151.803 703 151.999L703 175.001Q703 175.197 702.99 175.394Q702.981 175.59 702.961 175.785Q702.942 175.98 702.913 176.175Q702.885 176.369 702.846 176.562Q702.808 176.754 702.76 176.945Q702.713 177.135 702.656 177.323Q702.599 177.511 702.532 177.696Q702.466 177.881 702.391 178.062Q702.316 178.243 702.232 178.421Q702.148 178.599 702.056 178.772Q701.963 178.945 701.862 179.113Q701.761 179.282 701.652 179.445Q701.543 179.608 701.426 179.766Q701.309 179.924 701.184 180.076Q701.06 180.227 700.928 180.373Q700.796 180.518 700.657 180.657Q700.518 180.796 700.373 180.928Q700.227 181.06 700.075 181.184Q699.924 181.309 699.766 181.426Q699.608 181.543 699.445 181.652Q699.282 181.761 699.113 181.862Q698.945 181.963 698.772 182.055Q698.598 182.148 698.421 182.232Q698.243 182.316 698.062 182.391Q697.881 182.466 697.696 182.532Q697.511 182.599 697.323 182.656Q697.135 182.713 696.945 182.76Q696.754 182.808 696.561 182.846Q696.369 182.885 696.175 182.913Q695.98 182.942 695.785 182.962Q695.59 182.981 695.393 182.99Q695.197 183 695.001 183L567.999 183Q567.803 183 567.607 182.99Q567.41 182.981 567.215 182.962Q567.02 182.942 566.825 182.913Q566.631 182.885 566.438 182.846Q566.246 182.808 566.055 182.76Q565.865 182.713 565.677 182.656Q565.489 182.599 565.304 182.532Q565.119 182.466 564.938 182.391Q564.756 182.316 564.579 182.232Q564.401 182.148 564.228 182.055Q564.055 181.963 563.887 181.862Q563.718 181.761 563.555 181.652Q563.392 181.543 563.234 181.426Q563.076 181.309 562.924 181.184Q562.773 181.06 562.627 180.928Q562.482 180.796 562.343 180.657Q562.204 180.518 562.072 180.373Q561.94 180.227 561.816 180.076Q561.691 179.924 561.574 179.766Q561.457 179.608 561.348 179.445Q561.239 179.282 561.138 179.113Q561.037 178.945 560.945 178.772Q560.852 178.599 560.768 178.421Q560.684 178.243 560.609 178.062Q560.534 177.881 560.468 177.696Q560.401 177.511 560.344 177.323Q560.287 177.135 560.24 176.945Q560.192 176.754 560.154 176.562Q560.115 176.369 560.087 176.175Q560.058 175.98 560.039 175.785Q560.019 175.59 560.01 175.394Q560 175.197 560 175.001L560 151.999Q560 151.803 560.01 151.607Q560.019 151.41 560.039 151.215Q560.058 151.02 560.086 150.825Q560.115 150.631 560.154 150.438Q560.192 150.246 560.24 150.055Q560.287 149.865 560.344 149.677Q560.401 149.489 560.467 149.304Q560.534 149.119 560.609 148.938Q560.684 148.756 560.768 148.579Q560.852 148.401 560.944 148.228Q561.037 148.055 561.138 147.887Q561.239 147.718 561.348 147.555Q561.457 147.392 561.574 147.234Q561.691 147.076 561.816 146.924Q561.94 146.773 562.072 146.627Q562.204 146.482 562.343 146.343Q562.482 146.204 562.627 146.072Q562.773 145.94 562.924 145.816Q563.076 145.691 563.234 145.574Q563.392 145.457 563.555 145.348Q563.718 145.239 563.887 145.138Q564.055 145.037 564.228 144.945Q564.401 144.852 564.579 144.768Q564.756 144.684 564.938 144.609Q565.119 144.534 565.304 144.468Q565.489 144.401 565.677 144.344Q565.865 144.287 566.055 144.24Q566.246 144.192 566.438 144.154Q566.631 144.115 566.825 144.087Q567.02 144.058 567.215 144.039Q567.41 144.019 567.607 144.01Q567.803 144 567.999 144Z" id="Rectangle-3" fill="#F44336" fill-rule="evenodd" stroke="none" />
    <path d="M410.999 144L538.001 144Q538.197 144 538.393 144.01Q538.59 144.019 538.785 144.039Q538.98 144.058 539.175 144.087Q539.369 144.115 539.561 144.154Q539.754 144.192 539.945 144.24Q540.135 144.287 540.323 144.344Q540.511 144.401 540.696 144.468Q540.881 144.534 541.062 144.609Q541.243 144.684 541.421 144.768Q541.598 144.852 541.772 144.945Q541.945 145.037 542.113 145.138Q542.282 145.239 542.445 145.348Q542.608 145.457 542.766 145.574Q542.924 145.691 543.076 145.816Q543.227 145.94 543.373 146.072Q543.518 146.204 543.657 146.343Q543.796 146.482 543.928 146.627Q544.06 146.773 544.184 146.924Q544.309 147.076 544.426 147.234Q544.543 147.392 544.652 147.555Q544.761 147.718 544.862 147.887Q544.963 148.055 545.055 148.228Q545.148 148.401 545.232 148.579Q545.316 148.756 545.391 148.938Q545.466 149.119 545.532 149.304Q545.599 149.489 545.656 149.677Q545.713 149.865 545.76 150.055Q545.808 150.246 545.846 150.438Q545.885 150.631 545.913 150.825Q545.942 151.02 545.961 151.215Q545.981 151.41 545.99 151.607Q546 151.803 546 151.999L546 175.001Q546 175.197 545.99 175.394Q545.981 175.59 545.961 175.785Q545.942 175.98 545.913 176.175Q545.885 176.369 545.846 176.562Q545.808 176.754 545.76 176.945Q545.713 177.135 545.656 177.323Q545.599 177.511 545.532 177.696Q545.466 177.881 545.391 178.062Q545.316 178.243 545.232 178.421Q545.148 178.599 545.055 178.772Q544.963 178.945 544.862 179.113Q544.761 179.282 544.652 179.445Q544.543 179.608 544.426 179.766Q544.309 179.924 544.184 180.076Q544.06 180.227 543.928 180.373Q543.796 180.518 543.657 180.657Q543.518 180.796 543.373 180.928Q543.227 181.06 543.076 181.184Q542.924 181.309 542.766 181.426Q542.608 181.543 542.445 181.652Q542.282 181.761 542.113 181.862Q541.945 181.963 541.772 182.055Q541.598 182.148 541.421 182.232Q541.243 182.316 541.062 182.391Q540.881 182.466 540.696 182.532Q540.511 182.599 540.323 182.656Q540.135 182.713 539.945 182.76Q539.754 182.808 539.561 182.846Q539.369 182.885 539.175 182.913Q538.98 182.942 538.785 182.962Q538.59 182.981 538.393 182.99Q538.197 183 538.001 183L410.999 183Q410.803 183 410.607 182.99Q410.41 182.981 410.215 182.962Q410.02 182.942 409.825 182.913Q409.631 182.885 409.438 182.846Q409.246 182.808 409.055 182.76Q408.865 182.713 408.677 182.656Q408.489 182.599 408.304 182.532Q408.119 182.466 407.938 182.391Q407.756 182.316 407.579 182.232Q407.401 182.148 407.228 182.055Q407.055 181.963 406.887 181.862Q406.718 181.761 406.555 181.652Q406.392 181.543 406.234 181.426Q406.076 181.309 405.924 181.184Q405.773 181.06 405.627 180.928Q405.482 180.796 405.343 180.657Q405.204 180.518 405.072 180.373Q404.94 180.227 404.816 180.076Q404.691 179.924 404.574 179.766Q404.457 179.608 404.348 179.445Q404.239 179.282 404.138 179.113Q404.037 178.945 403.944 178.772Q403.852 178.599 403.768 178.421Q403.684 178.243 403.609 178.062Q403.534 177.881 403.467 177.696Q403.401 177.511 403.344 177.323Q403.287 177.135 403.24 176.945Q403.192 176.754 403.154 176.562Q403.115 176.369 403.087 176.175Q403.058 175.98 403.039 175.785Q403.019 175.59 403.01 175.394Q403 175.197 403 175.001L403 151.999Q403 151.803 403.01 151.607Q403.019 151.41 403.038 151.215Q403.058 151.02 403.087 150.825Q403.115 150.631 403.154 150.438Q403.192 150.246 403.24 150.055Q403.287 149.865 403.344 149.677Q403.401 149.489 403.467 149.304Q403.534 149.119 403.609 148.938Q403.684 148.756 403.768 148.579Q403.852 148.401 403.944 148.228Q404.037 148.055 404.138 147.887Q404.239 147.718 404.348 147.555Q404.457 147.392 404.574 147.234Q404.691 147.076 404.816 146.924Q404.94 146.773 405.072 146.627Q405.204 146.482 405.343 146.343Q405.482 146.204 405.627 146.072Q405.773 145.94 405.924 145.816Q406.076 145.691 406.234 145.574Q406.392 145.457 406.555 145.348Q406.718 145.239 406.887 145.138Q407.055 145.037 407.228 144.945Q407.401 144.852 407.579 144.768Q407.756 144.684 407.938 144.609Q408.119 144.534 408.304 144.468Q408.489 144.401 408.677 144.344Q408.865 144.287 409.055 144.24Q409.246 144.192 409.438 144.154Q409.631 144.115 409.825 144.087Q410.02 144.058 410.215 144.039Q410.41 144.019 410.607 144.01Q410.803 144 410.999 144Z" id="Rectangle-3" fill="#F44336" fill-rule="evenodd" stroke="none" />
    <path d="M244.999 144L372.001 144Q372.197 144 372.393 144.01Q372.59 144.019 372.785 144.039Q372.98 144.058 373.175 144.087Q373.369 144.115 373.561 144.154Q373.754 144.192 373.945 144.24Q374.135 144.287 374.323 144.344Q374.511 144.401 374.696 144.468Q374.881 144.534 375.062 144.609Q375.243 144.684 375.421 144.768Q375.598 144.852 375.772 144.945Q375.945 145.037 376.113 145.138Q376.282 145.239 376.445 145.348Q376.608 145.457 376.766 145.574Q376.924 145.691 377.075 145.816Q377.227 145.94 377.373 146.072Q377.518 146.204 377.657 146.343Q377.796 146.482 377.928 146.627Q378.06 146.773 378.184 146.924Q378.309 147.076 378.426 147.234Q378.543 147.392 378.652 147.555Q378.761 147.718 378.862 147.887Q378.963 148.055 379.055 148.228Q379.148 148.401 379.232 148.579Q379.316 148.756 379.391 148.938Q379.466 149.119 379.532 149.304Q379.599 149.489 379.656 149.677Q379.713 149.865 379.76 150.055Q379.808 150.246 379.846 150.438Q379.885 150.631 379.913 150.825Q379.942 151.02 379.961 151.215Q379.981 151.41 379.99 151.607Q380 151.803 380 151.999L380 175.001Q380 175.197 379.99 175.394Q379.981 175.59 379.961 175.785Q379.942 175.98 379.913 176.175Q379.885 176.369 379.846 176.562Q379.808 176.754 379.76 176.945Q379.713 177.135 379.656 177.323Q379.599 177.511 379.532 177.696Q379.466 177.881 379.391 178.062Q379.316 178.243 379.232 178.421Q379.148 178.599 379.055 178.772Q378.963 178.945 378.862 179.113Q378.761 179.282 378.652 179.445Q378.543 179.608 378.426 179.766Q378.309 179.924 378.184 180.076Q378.06 180.227 377.928 180.373Q377.796 180.518 377.657 180.657Q377.518 180.796 377.373 180.928Q377.227 181.06 377.075 181.184Q376.924 181.309 376.766 181.426Q376.608 181.543 376.445 181.652Q376.282 181.761 376.113 181.862Q375.945 181.963 375.772 182.055Q375.598 182.148 375.421 182.232Q375.243 182.316 375.062 182.391Q374.881 182.466 374.696 182.532Q374.511 182.599 374.323 182.656Q374.135 182.713 373.945 182.76Q373.754 182.808 373.561 182.846Q373.369 182.885 373.175 182.913Q372.98 182.942 372.785 182.962Q372.59 182.981 372.393 182.99Q372.197 183 372.001 183L244.999 183Q244.803 183 244.606 182.99Q244.41 182.981 244.215 182.962Q244.02 182.942 243.825 182.913Q243.631 182.885 243.438 182.846Q243.246 182.808 243.055 182.76Q242.865 182.713 242.677 182.656Q242.489 182.599 242.304 182.532Q242.119 182.466 241.938 182.391Q241.756 182.316 241.579 182.232Q241.401 182.148 241.228 182.055Q241.055 181.963 240.887 181.862Q240.718 181.761 240.555 181.652Q240.392 181.543 240.234 181.426Q240.076 181.309 239.924 181.184Q239.773 181.06 239.627 180.928Q239.482 180.796 239.343 180.657Q239.204 180.518 239.072 180.373Q238.94 180.227 238.816 180.076Q238.691 179.924 238.574 179.766Q238.457 179.608 238.348 179.445Q238.239 179.282 238.138 179.113Q238.037 178.945 237.944 178.772Q237.852 178.599 237.768 178.421Q237.684 178.243 237.609 178.062Q237.534 177.881 237.468 177.696Q237.401 177.511 237.344 177.323Q237.287 177.135 237.24 176.945Q237.192 176.754 237.154 176.562Q237.115 176.369 237.087 176.175Q237.058 175.98 237.039 175.785Q237.019 175.59 237.01 175.394Q237 175.197 237 175.001L237 151.999Q237 151.803 237.01 151.607Q237.019 151.41 237.039 151.215Q237.058 151.02 237.087 150.825Q237.115 150.631 237.154 150.438Q237.192 150.246 237.24 150.055Q237.287 149.865 237.344 149.677Q237.401 149.489 237.468 149.304Q237.534 149.119 237.609 148.938Q237.684 148.756 237.768 148.579Q237.852 148.401 237.944 148.228Q238.037 148.055 238.138 147.887Q238.239 147.718 238.348 147.555Q238.457 147.392 238.574 147.234Q238.691 147.076 238.816 146.924Q238.94 146.773 239.072 146.627Q239.204 146.482 239.343 146.343Q239.482 146.204 239.627 146.072Q239.773 145.94 239.924 145.816Q240.076 145.691 240.234 145.574Q240.392 145.457 240.555 145.348Q240.718 145.239 240.887 145.138Q241.055 145.037 241.228 144.945Q241.401 144.852 241.579 144.768Q241.756 144.684 241.938 144.609Q242.119 144.534 242.304 144.468Q242.489 144.401 242.677 144.344Q242.865 144.287 243.055 144.24Q243.246 144.192 243.438 144.154Q243.631 144.115 243.825 144.087Q244.02 144.058 244.215 144.039Q244.41 144.019 244.606 144.01Q244.803 144 244.999 144Z" id="Rectangle-3" fill="#F44336" fill-rule="evenodd" stroke="none" />
    <path d="M53 240L703 240L703 291L53 291L53 240Z" id="Rectangle-4" fill="#F44336" fill-rule="evenodd" stroke="none" />
    <path d="M53 302L703 302L703 353L53 353L53 302Z" id="Rectangle-5" fill="#F44336" fill-rule="evenodd" stroke="none" />
    <path d="M53 367L703 367L703 418L53 418L53 367Z" id="Rectangle-6" fill="#F44336" fill-rule="evenodd" stroke="none" />
    <path d="M53 429L703 429L703 480L53 480L53 429Z" id="Rectangle-7" fill="#F44336" fill-rule="evenodd" stroke="none" />
  </g>
</svg>