<svg xmlns="http://www.w3.org/2000/svg" xmlns:svg="http://www.w3.org/2000/svg" xmlns:xlink="http://www.w3.org/1999/xlink" id="SVGRoot" width="1000mm" height="200mm" version="1.1" viewBox="0 0 1000 200"><defs id="defs15"><linearGradient id="linearGradient2656"><stop style="stop-color:#6969ff;stop-opacity:1" id="stop2652" offset="0"/><stop style="stop-color:#696969;stop-opacity:1" id="stop2654" offset="1"/></linearGradient><linearGradient id="linearGradient2658" x1="13.432" x2="964.216" y1="101.867" y2="101.867" gradientTransform="translate(12.449102,-0.59281904)" gradientUnits="userSpaceOnUse" xlink:href="#linearGradient2656"/></defs><g id="layer1"><g id="text2492" aria-label="SilverAudioPlayer" style="font-size:134.882px;font-family:Dubai;-inkscape-font-specification:Dubai;fill:url(#linearGradient2658);stroke-width:11.2401"><path id="path547" d="m 57.308695,136.61375 q -9.44174,0 -17.399778,-2.56276 -7.958038,-2.69764 -14.027729,-7.41851 l 5.934809,-8.90221 q 5.39528,4.18134 12.13938,6.33945 6.878982,2.02323 12.948672,2.02323 9.711504,0 14.702139,-3.50693 5.125516,-3.50693 5.125516,-10.65568 0,-4.18134 -1.888348,-6.87898 -1.753466,-2.69764 -5.934808,-4.85575 -4.046461,-2.292998 -11.734735,-4.990638 L 54.880819,94.39568 Q 46.383253,91.428276 41.122855,88.595754 35.862457,85.62835 32.625289,80.907479 29.38812,76.186609 29.38812,69.037863 q 0,-7.553392 4.046461,-12.678908 4.181342,-5.260398 10.925442,-7.823156 6.7441,-2.562759 14.432374,-2.562759 8.092921,0 15.241667,2.023231 7.283628,2.02323 14.16261,6.609218 l -5.665044,8.902212 q -5.934808,-3.776696 -11.46497,-5.39528 -5.530163,-1.753466 -12.409145,-1.753466 -7.148746,0 -11.869616,2.967404 -4.72087,2.967404 -4.72087,9.171976 0,3.237168 1.483702,5.665044 1.618584,2.427876 5.39528,4.585988 3.911578,2.158112 10.79056,4.585989 l 2.292994,0.809292 q 9.037095,3.102286 14.432375,5.934808 5.39528,2.69764 9.306858,7.958038 3.911578,5.125516 3.911578,13.353316 0,8.2278 -3.911578,13.89285 -3.911578,5.53016 -11.195206,8.49756 -7.283628,2.83253 -17.264897,2.83253 z"/><path id="path549" d="m 110.8569,63.912347 q -2.15812,0 -4.04647,-1.079056 -1.88834,-1.213938 -3.10228,-3.102286 -1.07906,-1.888348 -1.07906,-4.04646 0,-2.292994 1.07906,-4.181342 1.21394,-1.888348 3.10228,-2.967404 1.88835,-1.213938 4.04647,-1.213938 2.29299,0 4.18134,1.213938 1.88835,1.079056 2.9674,2.967404 1.21394,1.888348 1.21394,4.181342 0,2.158112 -1.21394,4.04646 -1.07905,1.888348 -2.9674,3.102286 -1.88835,1.079056 -4.18134,1.079056 z m -5.66505,71.082813 V 75.916845 l 11.59985,-1.34882 v 60.427135 z"/><path id="path551" d="M 135.67517,134.99516 V 42.196344 l 11.59985,-1.34882 v 94.147636 z"/><path id="path553" d="m 216.33458,75.916845 v 0.809292 L 192.73023,134.99516 H 182.07455 L 157.93067,76.726137 v -0.809292 h 12.67891 l 14.29749,38.036725 q 0.53953,1.34882 2.15811,6.20457 l 0.80929,2.56276 q 1.34882,-4.58599 2.83253,-8.76733 l 13.4882,-38.036725 z"/><path id="path555" d="m 273.12002,107.47923 h -41.13901 q 0.13488,10.11615 4.85575,14.70214 4.85575,4.58599 12.40914,4.58599 5.39528,0 9.30686,-1.34882 4.04646,-1.34882 8.90221,-4.18134 l 4.45111,8.2278 q -11.06032,7.14875 -23.19971,7.14875 -12.94867,0 -20.77182,-7.14875 -7.68828,-7.28363 -7.68828,-22.92994 0,-8.902212 3.23717,-16.18584 3.23717,-7.283628 9.57662,-11.599853 6.47434,-4.451106 15.7812,-4.451106 7.82315,0 13.35332,3.237168 5.53016,3.102286 8.36268,8.632449 2.83252,5.530162 2.83252,12.678908 z M 248.84126,83.335356 q -7.01387,0 -11.06033,4.181342 -3.91158,4.181342 -5.12551,11.46497 h 29.40427 V 98.44214 q 0,-7.553392 -3.50693,-11.330088 -3.37205,-3.776696 -9.7115,-3.776696 z"/><path id="path557" d="m 316.41722,74.298261 q 2.29299,0 4.18134,0.269764 1.88835,0.269764 4.04646,0.809292 l -2.15811,12.004499 q -4.58599,-1.618584 -8.36269,-1.618584 -4.31622,0 -7.95803,1.888348 -3.64182,1.888348 -7.01387,7.148746 V 134.99516 H 287.55247 V 75.781963 l 11.59985,-1.213938 v 8.497567 q 3.37205,-4.316225 7.82316,-6.474337 4.4511,-2.292994 9.44174,-2.292994 z"/><path id="path559" d="m 370.10046,47.591625 32.91121,86.594245 v 0.80929 H 390.063 l -9.17198,-24.95317 h -37.22743 l -9.03709,24.95317 h -12.40915 v -0.80929 L 354.99368,47.591625 Z M 347.44029,99.79096 h 29.67404 L 362.27731,59.326359 Z"/><path id="path561" d="m 463.43869,74.568025 v 60.427135 h -10.38591 l -0.67441,-4.4511 q -10.38591,6.06969 -21.04159,6.06969 -8.22781,0 -13.4882,-4.58599 -5.12552,-4.72087 -5.12552,-14.16261 V 75.916845 l 11.59985,-1.34882 V 114.4931 q 0,4.4511 1.07906,7.14874 1.07906,2.56276 3.50693,3.7767 2.42788,1.07906 6.7441,1.07906 6.47434,0 16.18584,-4.99064 V 75.916845 Z"/><path id="path563" d="m 532.49823,40.847524 v 94.147636 h -10.5208 l -0.53953,-4.31622 q -4.85575,2.83252 -9.84638,4.31622 -4.99064,1.61859 -9.30686,1.61859 -7.82316,0 -13.35332,-3.50694 -5.53016,-3.64181 -8.49757,-10.25103 -2.83252,-6.7441 -2.83252,-15.78119 0,-10.251034 3.91158,-17.669544 4.04646,-7.418511 10.92544,-11.195207 6.87899,-3.911578 15.64632,-3.911578 5.79992,0 12.81379,1.753466 V 42.196344 Z M 490.0104,106.80482 q 0,10.11615 4.04646,14.97191 4.04646,4.85575 11.46497,4.85575 7.82315,0 15.37655,-4.45111 V 85.493468 q -6.06969,-2.02323 -11.86962,-2.02323 -5.53016,0 -9.84639,2.562758 -4.18134,2.427876 -6.7441,7.688274 -2.42787,5.260398 -2.42787,13.08355 z"/><path id="path565" d="m 557.04662,63.912347 q -2.15812,0 -4.04646,-1.079056 -1.88835,-1.213938 -3.10229,-3.102286 -1.07906,-1.888348 -1.07906,-4.04646 0,-2.292994 1.07906,-4.181342 1.21394,-1.888348 3.10229,-2.967404 1.88834,-1.213938 4.04646,-1.213938 2.29299,0 4.18134,1.213938 1.88835,1.079056 2.9674,2.967404 1.21394,1.888348 1.21394,4.181342 0,2.158112 -1.21394,4.04646 -1.07905,1.888348 -2.9674,3.102286 -1.88835,1.079056 -4.18134,1.079056 z m -5.66505,71.082813 V 75.916845 l 11.59985,-1.34882 v 60.427135 z"/><path id="path567" d="m 605.46926,136.61375 q -9.44174,0 -15.7812,-4.04646 -6.33945,-4.18135 -9.44174,-11.19521 -3.10228,-7.14875 -3.10228,-16.05096 0,-10.790558 4.04646,-17.66954 4.04646,-7.013865 10.92544,-10.116151 6.87898,-3.237168 15.64631,-3.237168 9.44174,0 15.7812,4.181342 6.33945,4.04646 9.44174,11.060325 3.10228,7.013864 3.10228,15.916072 0,10.92545 -4.04646,17.93931 -4.04646,6.87898 -10.92544,10.11615 -6.87898,3.10229 -15.64631,3.10229 z m 1.07906,-9.44174 q 17.39977,0 17.39977,-21.85089 0,-9.846384 -4.31622,-15.64631 -4.18134,-5.934808 -12.67891,-5.934808 -9.44174,0 -13.62308,5.799926 -4.04646,5.665044 -4.04646,15.781192 0,9.98127 4.31622,15.91608 4.31623,5.93481 12.94868,5.93481 z"/><path id="path569" d="m 681.0032,47.591625 q 10.38591,0 17.66954,3.37205 7.28363,3.237168 10.92544,9.306858 3.64182,5.934808 3.64182,13.892846 0,7.958038 -3.7767,14.432375 -3.64181,6.474336 -11.19521,10.385914 -7.41851,3.776692 -18.34395,3.776692 h -15.64631 v 32.2368 H 651.86869 V 47.591625 Z m -2.02323,44.645943 q 10.65568,0 15.91607,-4.585988 5.39528,-4.585988 5.39528,-12.948673 0,-8.09292 -4.99063,-12.274262 -4.85575,-4.316224 -14.56726,-4.316224 h -16.4556 v 34.125147 z"/><path id="path571" d="M 726.3234,134.99516 V 42.196344 l 11.59986,-1.34882 v 94.147636 z"/><path id="path573" d="m 780.95062,74.298261 q 10.38591,0 15.51143,4.72087 5.2604,4.720871 5.2604,14.837021 v 41.139008 h -10.5208 l -0.67441,-5.12551 q -9.30686,6.7441 -21.44624,6.7441 -5.12551,0 -9.17197,-1.88835 -4.04646,-2.02323 -6.33946,-5.53016 -2.15811,-3.64182 -2.15811,-8.22781 0,-7.41851 5.2604,-12.27426 5.2604,-4.99063 14.02773,-7.28363 8.76733,-2.29299 19.42301,-2.562754 v -2.967404 q 0,-6.06969 -2.42788,-8.76733 -2.42788,-2.832522 -8.2278,-2.832522 -9.84639,0 -20.50207,7.013864 l -5.12551,-8.09292 q 12.94867,-8.902213 27.11128,-8.902213 z M 763.82061,119.7535 q 0,3.50693 2.02323,5.26039 2.15811,1.75347 6.33945,1.75347 9.17198,0 17.93931,-5.39528 v -14.02773 q -11.73474,0.53953 -19.01837,3.64182 -7.28362,3.10228 -7.28362,8.76733 z"/><path id="path575" d="m 867.67989,75.916845 v 0.809292 l -22.5253,62.450373 q -2.9674,8.2278 -6.33945,13.08355 -3.37205,4.99063 -7.68828,7.14875 -4.18134,2.29299 -9.98127,2.29299 -5.9348,0 -11.73473,-2.02323 l 3.10229,-8.90221 q 3.91157,1.21394 7.68827,1.21394 3.10229,0 5.2604,-0.94418 2.15811,-0.94417 4.18134,-3.64181 2.15811,-2.69764 4.18134,-8.09292 l 1.61859,-4.31623 H 832.3408 L 809.68062,76.726137 v -0.809292 h 12.27427 l 13.89284,37.766965 1.48371,4.04646 2.15811,6.33945 3.37205,-10.38591 12.94867,-37.766965 z"/><path id="path577" d="m 925.13955,107.47923 h -41.13901 q 0.13488,10.11615 4.85575,14.70214 4.85575,4.58599 12.40914,4.58599 5.39528,0 9.30686,-1.34882 4.04646,-1.34882 8.90221,-4.18134 l 4.45111,8.2278 q -11.06032,7.14875 -23.1997,7.14875 -12.94868,0 -20.77183,-7.14875 -7.68828,-7.28363 -7.68828,-22.92994 0,-8.902212 3.23717,-16.18584 3.23717,-7.283628 9.57662,-11.599853 6.47434,-4.451106 15.7812,-4.451106 7.82315,0 13.35332,3.237168 5.53016,3.102286 8.36268,8.632449 2.83252,5.530162 2.83252,12.678908 z M 900.86079,83.335356 q -7.01387,0 -11.06033,4.181342 -3.91157,4.181342 -5.12551,11.46497 h 29.40427 V 98.44214 q 0,-7.553392 -3.50693,-11.330088 -3.37205,-3.776696 -9.7115,-3.776696 z"/><path id="path579" d="m 968.43681,74.298261 q 2.29299,0 4.18134,0.269764 1.88835,0.269764 4.04646,0.809292 l -2.15811,12.004499 q -4.58599,-1.618584 -8.36268,-1.618584 -4.31623,0 -7.95804,1.888348 -3.64182,1.888348 -7.01387,7.148746 V 134.99516 H 939.57206 V 75.781963 l 11.59985,-1.213938 v 8.497567 q 3.37205,-4.316225 7.82316,-6.474337 4.45111,-2.292994 9.44174,-2.292994 z"/></g></g></svg>