<?xml version="1.0" encoding="UTF-8" standalone="no"?>
<!-- Created with Inkscape (http://www.inkscape.org/) -->

<svg
   width="1200mm"
   height="200mm"
   viewBox="0 0 1200 200"
   version="1.1"
   id="SVGRoot"
   sodipodi:docname="textandlogo.svg"
   xml:space="preserve"
   inkscape:version="1.2.1 (9c6d41e410, 2022-07-14)"
   xmlns:inkscape="http://www.inkscape.org/namespaces/inkscape"
   xmlns:sodipodi="http://sodipodi.sourceforge.net/DTD/sodipodi-0.dtd"
   xmlns:xlink="http://www.w3.org/1999/xlink"
   xmlns="http://www.w3.org/2000/svg"
   xmlns:svg="http://www.w3.org/2000/svg"><sodipodi:namedview
     id="namedview128"
     pagecolor="#000000"
     bordercolor="#999999"
     borderopacity="1"
     inkscape:showpageshadow="0"
     inkscape:pageopacity="1.0"
     inkscape:pagecheckerboard="1"
     inkscape:deskcolor="#505050"
     inkscape:document-units="mm"
     showgrid="false"
     inkscape:zoom="0.44631734"
     inkscape:cx="3965.7881"
     inkscape:cy="1492.2118"
     inkscape:window-width="3840"
     inkscape:window-height="2089"
     inkscape:window-x="-8"
     inkscape:window-y="-8"
     inkscape:window-maximized="1"
     inkscape:current-layer="layer1"
     inkscape:pageshadow="0" /><defs
     id="defs123"><linearGradient
       inkscape:collect="always"
       xlink:href="#linearGradient2656"
       id="linearGradient2658"
       x1="13.432088"
       y1="101.86747"
       x2="964.21552"
       y2="101.86747"
       gradientUnits="userSpaceOnUse"
       gradientTransform="translate(-7.1621247,9.2852132)" /><linearGradient
       inkscape:collect="always"
       id="linearGradient2656"><stop
         style="stop-color:#6969ff;stop-opacity:1;"
         offset="0"
         id="stop2652" /><stop
         style="stop-color:#696969;stop-opacity:1;"
         offset="1"
         id="stop2654" /></linearGradient><linearGradient
       inkscape:collect="always"
       xlink:href="#linearGradient2656"
       id="linearGradient1083"
       x1="167.17365"
       y1="201.62875"
       x2="1039.9401"
       y2="1023.2695"
       gradientUnits="userSpaceOnUse" /></defs><g
     inkscape:label="Layer 1"
     inkscape:groupmode="layer"
     id="layer1"><g
       aria-label="SilverAudioPlayer"
       id="text2492"
       style="font-size:134.882px;font-family:Dubai;-inkscape-font-specification:Dubai;fill:url(#linearGradient2658);stroke-width:11.2401"><path
         d="m 37.697479,146.49178 q -9.44174,0 -17.399779,-2.56275 -7.958038,-2.69764 -14.027728,-7.41851 l 5.934808,-8.90222 q 5.39528,4.18135 12.139381,6.33946 6.878982,2.02323 12.948672,2.02323 9.711504,0 14.702138,-3.50693 5.125516,-3.50694 5.125516,-10.65568 0,-4.18135 -1.888348,-6.87899 -1.753466,-2.69764 -5.934808,-4.85575 -4.04646,-2.29299 -11.734734,-4.99063 l -2.292994,-0.80929 Q 26.772037,101.30631 21.511638,98.47379 16.25124,95.506386 13.014072,90.785516 9.7769041,86.064646 9.7769041,78.9159 q 0,-7.553393 4.0464599,-12.678909 4.181342,-5.260398 10.925443,-7.823156 6.7441,-2.562758 14.432374,-2.562758 8.09292,0 15.241666,2.02323 7.283629,2.02323 14.162611,6.609218 l -5.665044,8.902212 q -5.934809,-3.776696 -11.464971,-5.39528 -5.530162,-1.753466 -12.409144,-1.753466 -7.148746,0 -11.869616,2.967404 -4.72087,2.967404 -4.72087,9.171977 0,3.237168 1.483702,5.665044 1.618584,2.427876 5.39528,4.585988 3.911578,2.158112 10.79056,4.585988 l 2.292994,0.809292 q 9.037094,3.102286 14.432374,5.934808 5.395281,2.697638 9.306859,7.958038 3.911578,5.12552 3.911578,13.35332 0,8.2278 -3.911578,13.89285 -3.911578,5.53016 -11.195207,8.49756 -7.283628,2.83252 -17.264896,2.83252 z"
         id="path323" /><path
         d="m 91.245679,73.790383 q -2.158112,0 -4.04646,-1.079056 -1.888348,-1.213938 -3.102286,-3.102286 -1.079056,-1.888348 -1.079056,-4.04646 0,-2.292994 1.079056,-4.181342 1.213938,-1.888348 3.102286,-2.967404 1.888348,-1.213938 4.04646,-1.213938 2.292994,0 4.181342,1.213938 1.888348,1.079056 2.967404,2.967404 1.213938,1.888348 1.213938,4.181342 0,2.158112 -1.213938,4.04646 -1.079056,1.888348 -2.967404,3.102286 -1.888348,1.079056 -4.181342,1.079056 z M 85.580635,144.8732 V 85.794882 l 11.599852,-1.34882 V 144.8732 Z"
         id="path325" /><path
         d="M 116.06395,144.8732 V 52.074381 l 11.59985,-1.34882 V 144.8732 Z"
         id="path327" /><path
         d="m 196.72336,85.794882 v 0.809292 L 173.11901,144.8732 H 162.46333 L 138.31945,86.604174 v -0.809292 h 12.67891 l 14.29749,38.036728 q 0.53953,1.34882 2.15812,6.20457 l 0.80929,2.56276 q 1.34882,-4.58599 2.83252,-8.76733 l 13.4882,-38.036728 z"
         id="path329" /><path
         d="m 253.5088,117.35727 h -41.13901 q 0.13488,10.11615 4.85575,14.70214 4.85575,4.58599 12.40915,4.58599 5.39528,0 9.30685,-1.34882 4.04647,-1.34882 8.90222,-4.18134 l 4.4511,8.2278 q -11.06032,7.14874 -23.1997,7.14874 -12.94867,0 -20.77183,-7.14874 -7.68827,-7.28363 -7.68827,-22.92994 0,-8.90222 3.23716,-16.18584 3.23717,-7.283632 9.57663,-11.599856 6.47433,-4.451106 15.78119,-4.451106 7.82316,0 13.35332,3.237168 5.53016,3.102286 8.36268,8.632448 2.83253,5.530166 2.83253,12.678906 z M 229.23004,93.213392 q -7.01386,0 -11.06032,4.181342 -3.91158,4.181346 -5.12552,11.464966 h 29.40428 v -0.53952 q 0,-7.5534 -3.50694,-11.330092 -3.37205,-3.776696 -9.7115,-3.776696 z"
         id="path331" /><path
         d="m 296.806,84.176298 q 2.293,0 4.18134,0.269764 1.88835,0.269764 4.04646,0.809292 l -2.15811,12.004498 q -4.58599,-1.618584 -8.36268,-1.618584 -4.31623,0 -7.95804,1.888348 -3.64181,1.888348 -7.01386,7.148744 V 144.8732 H 267.94125 V 85.66 l 11.59986,-1.213938 v 8.497566 q 3.37205,-4.316224 7.82315,-6.474336 4.45111,-2.292994 9.44174,-2.292994 z"
         id="path333" /><path
         d="m 350.48925,57.469661 32.91121,86.594249 v 0.80929 h -12.94868 l -9.17197,-24.95317 h -37.22744 l -9.03709,24.95317 h -12.40914 v -0.80929 L 335.38246,57.469661 Z M 327.82907,109.669 h 29.67404 L 342.66609,69.204395 Z"
         id="path335" /><path
         d="M 443.82748,84.446062 V 144.8732 h -10.38592 l -0.67441,-4.45111 q -10.38591,6.06969 -21.04159,6.06969 -8.2278,0 -13.4882,-4.58598 -5.12552,-4.72087 -5.12552,-14.16262 V 85.794882 l 11.59986,-1.34882 v 39.925068 q 0,4.45111 1.07905,7.14875 1.07906,2.56276 3.50693,3.7767 2.42788,1.07905 6.74411,1.07905 6.47433,0 16.18584,-4.99063 V 85.794882 Z"
         id="path337" /><path
         d="M 512.88701,50.725561 V 144.8732 h -10.52079 l -0.53953,-4.31622 q -4.85575,2.83252 -9.84639,4.31622 -4.99063,1.61858 -9.30686,1.61858 -7.82315,0 -13.35332,-3.50693 -5.53016,-3.64181 -8.49756,-10.25103 -2.83252,-6.7441 -2.83252,-15.7812 0,-10.25103 3.91157,-17.669538 4.04646,-7.41851 10.92545,-11.195206 6.87898,-3.911578 15.64631,-3.911578 5.79993,0 12.81379,1.753466 V 52.074381 Z m -42.48783,65.957299 q 0,10.11615 4.04646,14.9719 4.04646,4.85576 11.46497,4.85576 7.82316,0 15.37655,-4.45111 V 95.371504 q -6.06969,-2.02323 -11.86962,-2.02323 -5.53016,0 -9.84638,2.562758 -4.18135,2.427876 -6.7441,7.688278 -2.42788,5.26039 -2.42788,13.08355 z"
         id="path339" /><path
         d="m 537.4354,73.790383 q -2.15811,0 -4.04646,-1.079056 -1.88835,-1.213938 -3.10229,-3.102286 -1.07905,-1.888348 -1.07905,-4.04646 0,-2.292994 1.07905,-4.181342 1.21394,-1.888348 3.10229,-2.967404 1.88835,-1.213938 4.04646,-1.213938 2.29299,0 4.18134,1.213938 1.88835,1.079056 2.96741,2.967404 1.21393,1.888348 1.21393,4.181342 0,2.158112 -1.21393,4.04646 -1.07906,1.888348 -2.96741,3.102286 -1.88835,1.079056 -4.18134,1.079056 z M 531.77035,144.8732 V 85.794882 l 11.59986,-1.34882 V 144.8732 Z"
         id="path341" /><path
         d="m 585.85804,146.49178 q -9.44174,0 -15.78119,-4.04646 -6.33946,-4.18134 -9.44174,-11.1952 -3.10229,-7.14875 -3.10229,-16.05096 0,-10.79056 4.04646,-17.669544 4.04646,-7.013864 10.92544,-10.11615 6.87899,-3.237168 15.64632,-3.237168 9.44174,0 15.78119,4.181342 6.33946,4.04646 9.44174,11.060324 3.10229,7.013866 3.10229,15.916076 0,10.92544 -4.04646,17.93931 -4.04646,6.87898 -10.92544,10.11615 -6.87899,3.10228 -15.64632,3.10228 z m 1.07906,-9.44174 q 17.39978,0 17.39978,-21.85088 0,-9.84639 -4.31623,-15.646314 -4.18134,-5.934808 -12.67891,-5.934808 -9.44174,0 -13.62308,5.799926 -4.04646,5.665046 -4.04646,15.781196 0,9.98127 4.31623,15.91608 4.31622,5.9348 12.94867,5.9348 z"
         id="path343" /><path
         d="m 661.39198,57.469661 q 10.38592,0 17.66954,3.37205 7.28363,3.237168 10.92545,9.306858 3.64181,5.934809 3.64181,13.892847 0,7.958038 -3.7767,14.432374 -3.64181,6.47434 -11.1952,10.38591 -7.41851,3.7767 -18.34395,3.7767 h -15.64632 v 32.2368 H 632.25747 V 57.469661 Z m -2.02323,44.645939 q 10.65568,0 15.91608,-4.585984 5.39528,-4.585988 5.39528,-12.948672 0,-8.09292 -4.99064,-12.274263 -4.85575,-4.316224 -14.56725,-4.316224 H 644.66661 V 102.1156 Z"
         id="path345" /><path
         d="M 706.71219,144.8732 V 52.074381 l 11.59985,-1.34882 V 144.8732 Z"
         id="path347" /><path
         d="m 761.3394,84.176298 q 10.38592,0 15.51143,4.72087 5.2604,4.72087 5.2604,14.837022 v 41.13901 h -10.52079 l -0.67441,-5.12552 q -9.30686,6.7441 -21.44624,6.7441 -5.12552,0 -9.17198,-1.88834 -4.04646,-2.02323 -6.33945,-5.53017 -2.15811,-3.64181 -2.15811,-8.2278 0,-7.41851 5.26039,-12.27426 5.2604,-4.99064 14.02773,-7.28363 8.76733,-2.29299 19.42301,-2.56276 v -2.9674 q 0,-6.069692 -2.42788,-8.767332 -2.42787,-2.832522 -8.2278,-2.832522 -9.84638,0 -20.50206,7.013864 l -5.12552,-8.09292 q 12.94867,-8.902212 27.11128,-8.902212 z m -17.13001,45.455232 q 0,3.50694 2.02323,5.2604 2.15811,1.75347 6.33945,1.75347 9.17198,0 17.93931,-5.39528 v -14.02773 q -11.73473,0.53953 -19.01836,3.64181 -7.28363,3.10229 -7.28363,8.76733 z"
         id="path349" /><path
         d="m 848.06867,85.794882 v 0.809292 l -22.5253,62.450366 q -2.9674,8.2278 -6.33945,13.08356 -3.37205,4.99063 -7.68827,7.14874 -4.18135,2.293 -9.98127,2.293 -5.93481,0 -11.73474,-2.02323 l 3.10229,-8.90222 q 3.91158,1.21394 7.68827,1.21394 3.10229,0 5.2604,-0.94417 2.15811,-0.94418 4.18134,-3.64182 2.15812,-2.69764 4.18135,-8.09292 l 1.61858,-4.31622 h -3.10229 L 790.06941,86.604174 v -0.809292 h 12.27426 l 13.89285,37.766958 1.4837,4.04646 2.15811,6.33946 3.37205,-10.38592 12.94867,-37.766958 z"
         id="path351" /><path
         d="m 905.52833,117.35727 h -41.13901 q 0.13488,10.11615 4.85575,14.70214 4.85576,4.58599 12.40915,4.58599 5.39528,0 9.30686,-1.34882 4.04646,-1.34882 8.90221,-4.18134 l 4.4511,8.2278 q -11.06032,7.14874 -23.1997,7.14874 -12.94867,0 -20.77183,-7.14874 -7.68827,-7.28363 -7.68827,-22.92994 0,-8.90222 3.23717,-16.18584 3.23716,-7.283632 9.57662,-11.599856 6.47433,-4.451106 15.78119,-4.451106 7.82316,0 13.35332,3.237168 5.53016,3.102286 8.36268,8.632448 2.83253,5.530166 2.83253,12.678906 z M 881.24957,93.213392 q -7.01386,0 -11.06032,4.181342 -3.91158,4.181346 -5.12552,11.464966 h 29.40428 v -0.53952 q 0,-7.5534 -3.50693,-11.330092 -3.37205,-3.776696 -9.71151,-3.776696 z"
         id="path353" /><path
         d="m 948.82559,84.176298 q 2.293,0 4.18135,0.269764 1.88834,0.269764 4.04646,0.809292 l -2.15812,12.004498 q -4.58598,-1.618584 -8.36268,-1.618584 -4.31622,0 -7.95804,1.888348 -3.64181,1.888348 -7.01386,7.148744 V 144.8732 H 919.96085 V 85.66 l 11.59985,-1.213938 v 8.497566 q 3.37205,-4.316224 7.82315,-6.474336 4.45111,-2.292994 9.44174,-2.292994 z"
         id="path355" /></g><g
       style="fill:none"
       id="g277"
       transform="matrix(0.16666667,0,0,0.16666667,981.82485,0.71706784)"><circle
         cx="600"
         cy="600"
         r="600"
         fill="url(#sap)"
         id="circle256"
         style="fill-opacity:1;fill:url(#linearGradient1083);opacity:1;stroke-width:1.00199998;stroke-dasharray:none"
         inkscape:label="circle256" /><circle
         cx="600"
         cy="600"
         r="225"
         fill="#ff9900"
         id="circle258" /><circle
         cx="600"
         cy="600"
         r="175"
         fill="#00ff66"
         id="circle260" /><circle
         cx="600"
         cy="600"
         r="125"
         fill="#00f0ff"
         id="circle262" /><circle
         cx="600"
         cy="600"
         r="75"
         fill="#000000"
         id="circle264" /></g></g></svg>
