<svg width="439" height="439" viewBox="0 0 439 439" fill="none" xmlns="http://www.w3.org/2000/svg">
<rect width="439" height="439" fill="#D9D9D9"/>
<rect y="265" width="439" height="140" fill="black"/>
<rect x="25" y="348" width="227" height="18" rx="6" fill="#D9D9D9"/>
<rect x="25" y="377" width="141" height="9" rx="4.5" fill="#D9D9D9"/>
<circle cx="49" cy="305" r="20" fill="#D9D9D9"/>
<circle cx="129" cy="305" r="20" fill="#D9D9D9"/>
<circle cx="209" cy="305" r="20" fill="#D9D9D9"/>
<rect x="315" y="285" width="100" height="100" fill="#D9D9D9"/>
<circle cx="365" cy="335" r="50" fill="#0048FF"/>
<circle cx="365" cy="335" r="18.75" fill="#FF9900"/>
<circle cx="365" cy="335" r="14.5833" fill="#00FF66"/>
<ellipse cx="365" cy="335" rx="10.4167" ry="10.4167" fill="#00F0FF"/>
<circle cx="365" cy="335" r="6.25" fill="black"/>
<path d="M144 305L121.5 317.99V292.01L144 305Z" fill="black"/>
<circle cx="224" cy="112" r="100" fill="#0048FF"/>
<circle cx="224" cy="112" r="37.5" fill="#FF9900"/>
<circle cx="224" cy="112" r="29.1667" fill="#00FF66"/>
<ellipse cx="224" cy="112" rx="20.8333" ry="20.8333" fill="#00F0FF"/>
<circle cx="224" cy="112" r="12.5" fill="black"/>
<rect x="44" y="11" width="352" height="204" rx="3" fill="black" fill-opacity="0.5"/>
<circle cx="140" cy="184" r="20" fill="#D9D9D9" fill-opacity="0.2"/>
<circle cx="220" cy="184" r="20" fill="#D9D9D9" fill-opacity="0.2"/>
<circle cx="300" cy="184" r="20" fill="#D9D9D9" fill-opacity="0.2"/>
<path d="M235 184L212.5 196.99V171.01L235 184Z" fill="white"/>
<path d="M137 183L146 176.072V189.928L137 183Z" fill="white"/>
<rect x="59" y="169" width="35" height="30" rx="5" fill="#D9D9D9" fill-opacity="0.2"/>
<rect x="56" y="49" width="110" height="17" rx="5" fill="#D9D9D9"/>
<rect x="58" y="71" width="107" height="10" rx="5" fill="#D9D9D9"/>
<line x1="135" y1="177" x2="135" y2="190" stroke="white" stroke-width="2"/>
<path d="M303 183L294 189.928V176.072L303 183Z" fill="white"/>
<line x1="305" y1="177" x2="305" y2="190" stroke="white" stroke-width="2"/>
<rect x="69" y="182" width="2" height="2" fill="#D9D9D9"/>
<rect x="75" y="182" width="2" height="2" fill="#D9D9D9"/>
<rect x="81" y="182" width="2" height="2" fill="#D9D9D9"/>
<rect x="56" y="140" width="25" height="12" rx="2" fill="#D9D9D9"/>
<rect x="359" y="140" width="25" height="12" rx="2" fill="#D9D9D9"/>
<rect x="59" y="119" width="321" height="6" rx="2" fill="#D9D9D9"/>
<circle cx="114" cy="122" r="10" fill="#D9D9D9"/>
<rect x="317" y="26" width="63" height="64" fill="black" fill-opacity="0.6"/>
<circle cx="349" cy="58" r="30" fill="#0048FF"/>
<circle cx="349" cy="58" r="11.25" fill="#FF9900"/>
<ellipse cx="349" cy="58" rx="8.75" ry="8.75" fill="#00FF66"/>
<ellipse cx="349" cy="58" rx="6.25" ry="6.25" fill="#00F0FF"/>
<circle cx="349" cy="58" r="3.75" fill="black"/>
</svg>
