<svg xmlns="http://www.w3.org/2000/svg" id="SVGRoot" width="512" height="512" version="1.1" viewBox="0 0 512 512">
    <g id="layer1">
        <path id="path136"
              d="M 253.88819,5.9317457 A 247.5,247.5 0 0 0 6.3881903,253.43175 247.5,247.5 0 0 0 253.88819,500.93175 247.5,247.5 0 0 0 308.18994,494.24476 247.5,247.5 0 0 1 82.442877,248.2755 247.5,247.5 0 0 1 277.49413,7.0596857 247.5,247.5 0 0 0 253.88819,5.9317457 Z"
              style="fill:#fc0;stroke-width:41.25"/>
        <rect style="fill:#00f;stroke-width:19.3823" id="rect378" width="82.5" height="82.5" x="291.124" y="54.294"
              rx="12.375" ry="12.375"/>
        <rect style="fill:#00f;stroke-width:19.3823" id="rect378-6" width="82.5" height="82.5" x="387.728" y="54.4"
              rx="12.375" ry="12.375"/>
        <rect style="fill:#00f;stroke-width:19.3823" id="rect378-8" width="82.5" height="82.5" x="291.432" y="151.355"
              rx="12.375" ry="12.375"/>
        <rect style="fill:#00f;stroke-width:19.3823" id="rect378-6-0" width="82.5" height="82.5" x="388.036" y="151.462"
              rx="12.375" ry="12.375"/>
    </g>
</svg>