<svg width="800px" height="800px" viewBox="0 0 800 800" version="1.1" xmlns:xlink="http://www.w3.org/1999/xlink" xmlns="http://www.w3.org/2000/svg">
  <defs>
    <linearGradient gradientUnits="userSpaceOnUse" x1="0" y1="171" x2="345" y2="171" id="gradient_1">
      <stop offset="0%" stop-color="#0800FF" />
      <stop offset="51.065983%" stop-color="#D4D4D4" />
      <stop offset="100%" stop-color="#F50000" />
    </linearGradient>
  </defs>
  <path d="M0 0L800 0L800 800L0 800L0 0Z" id="Rectangle-4" fill="#070E0E" fill-rule="evenodd" stroke="none" />
  <path d="M435 785.5C435 779.149 440.149 774 446.5 774C452.851 774 458 779.149 458 785.5C458 791.851 452.851 797 446.5 797C440.149 797 435 791.851 435 785.5Z" id="Oval" fill="#FF9800" fill-rule="evenodd" stroke="none" />
  <path d="M444 781C444.002 781 444 789 444 789L451.5 785C451.5 785 443.998 781 444 781Z" id="Vector" fill="#D3D3D3" fill-rule="evenodd" stroke="#808080" stroke-width="1" />
  <path d="M356 742L338 729L356 713.5L356 742Z" id="Vector-2" fill="#FFFFFF" fill-rule="evenodd" stroke="#FFFFFF" stroke-width="1" />
  <path d="M336 714L336 742L315.5 727L336 714Z" id="Vector-3" fill="#FFFFFF" fill-rule="evenodd" stroke="#FFFFFF" stroke-width="1" />
  <path d="M308 713L316 713L316 742L308 742L308 713Z" id="Vector-4" fill="#FFFFFF" fill-rule="evenodd" stroke="#FFFFFF" stroke-width="1" />
  <path d="M438 741.5L458 728.5L438 713L438 741.5Z" transform="matrix(-0.99999994 0 0 1 1908 0)" id="Vector-7" fill="#FFFFFF" fill-rule="evenodd" stroke="#FFFFFF" stroke-width="1" />
  <path d="M458 714L458 742L478 727L458 714Z" transform="matrix(-0.99999994 0 0 1 1948 0)" id="Vector-8" fill="#FFFFFF" fill-rule="evenodd" stroke="#FFFFFF" stroke-width="1" />
  <path d="M478 714L486 714L486 743L478 743L478 714Z" id="Vector-9" fill="#FFFFFF" fill-rule="evenodd" stroke="#FFFFFF" stroke-width="1" />
  <path d="M400 713L411 713L411 742L400 742L400 713Z" id="Vector-6" fill="#FFFFFF" fill-rule="evenodd" stroke="#FFFFFF" stroke-width="1" />
  <path d="M383 713L394 713L394 742L383 742L383 713Z" id="Vector-5" fill="#FFFFFF" fill-rule="evenodd" stroke="#FFFFFF" stroke-width="1" />
  <g id="Media-Player" fill="#F3F3F3" transform="translate(11.000122 0)">
    <path d="M66.352 9.81485Q65.6122 9.81485 65.0849 9.31681Q64.5575 8.81876 64.5575 8.11563Q64.5575 7.41251 65.0849 6.91446Q65.6122 6.40909 66.352 6.40909Q67.0844 6.40909 67.6117 6.91446Q68.1391 7.41251 68.1391 8.11563Q68.1391 8.81876 67.6117 9.31681Q67.0844 9.81485 66.352 9.81485ZM2.64404 7.09024L5.79346 7.09024L13.2129 25.203L13.4692 25.203L20.8813 7.09024L24.0308 7.09024L24.0308 28.9091L21.5625 28.9091L21.5625 12.3344L21.3501 12.3344L14.5312 28.9091L12.1436 28.9091L5.32471 12.3344L5.1123 12.3344L5.1123 28.9091L2.64404 28.9091L2.64404 7.09024ZM49.0187 28.2133Q50.5861 29.2533 52.6295 29.2533Q54.2043 29.2533 55.1491 28.726Q56.1012 28.1986 56.6139 27.5248Q57.1266 26.8437 57.3976 26.3969L57.6979 26.3969L57.6979 28.9091L60.1295 28.9091L60.1295 7.09024L57.6173 7.09024L57.6173 15.1469L57.3976 15.1469Q57.1266 14.7221 56.6286 14.0556Q56.1305 13.3891 55.2003 12.8617Q54.2702 12.3344 52.6735 12.3344Q50.6007 12.3344 49.026 13.3671Q47.4513 14.3998 46.5651 16.2968Q45.6789 18.1938 45.6789 20.7719Q45.6789 23.372 46.5651 25.2763Q47.4513 27.1733 49.0187 28.2133ZM97.8863 28.9091L97.8863 7.09024L105.254 7.09024Q107.825 7.09024 109.459 8.0131Q111.092 8.93595 111.883 10.5033Q112.674 12.0634 112.674 13.997Q112.674 15.9233 111.89 17.498Q111.107 19.0727 109.473 20.0102Q107.847 20.9403 105.298 20.9403L100.523 20.9403L100.523 28.9091L97.8863 28.9091ZM119.103 28.9091L119.103 7.09024L116.591 7.09024L116.591 28.9091L119.103 28.9091ZM100.523 18.5966L105.211 18.5966Q107.847 18.5966 108.961 17.2782Q110.074 15.9525 110.074 13.997Q110.074 12.0268 108.953 10.7304Q107.833 9.43399 105.174 9.43399L100.523 9.43399L100.523 18.5966ZM177.233 12.5468L174.801 12.5468L174.801 28.9091L177.313 28.9091L177.313 18.5526Q177.313 16.89 178.485 15.8061Q179.657 14.7221 181.452 14.7221Q181.95 14.7221 182.404 14.788Q182.858 14.8539 182.982 14.8905L182.982 12.3344Q182.77 12.3124 182.353 12.3051Q181.942 12.2904 181.664 12.2904Q180.192 12.2904 179.02 13.0448Q177.848 13.7992 177.401 15.015L177.233 15.015L177.233 12.5468ZM35.839 29.2533Q33.4732 29.2533 31.7594 28.206Q30.0528 27.1513 29.13 25.2616Q28.2071 23.372 28.2071 20.8525Q28.2071 18.3402 29.13 16.4213Q30.0528 14.495 31.7081 13.4184Q33.3634 12.3344 35.5826 12.3344Q36.8643 12.3344 38.1095 12.7592Q39.3546 13.184 40.3727 14.1361Q41.398 15.0883 42.006 16.6557Q42.6139 18.2231 42.6139 20.5155L42.6139 21.5775L30.734 21.5775Q30.8219 24.1996 32.2208 25.5985Q33.6197 26.9901 35.839 26.9901Q37.3185 26.9901 38.3805 26.3529Q39.4498 25.7157 39.9259 24.434L42.3575 25.1151Q41.7862 26.9682 40.0577 28.1108Q38.3292 29.2533 35.839 29.2533ZM74.1789 28.704Q75.446 29.29 77.0061 29.29Q78.4343 29.29 79.4231 28.8651Q80.4118 28.4403 81.0051 27.8324Q81.6057 27.2245 81.862 26.6899L81.9866 26.6899L81.9866 28.9091L84.5061 28.9091L84.5061 18.1278Q84.5061 16.1796 83.8616 15.0224Q83.2243 13.8578 82.2576 13.2865Q81.2981 12.7079 80.2654 12.5248Q79.24 12.3344 78.449 12.3344Q77.2185 12.3344 75.9441 12.6713Q74.6697 13.0009 73.6003 13.8432Q72.531 14.6781 71.8865 16.165L74.2742 17.0219Q74.6916 16.1283 75.7097 15.3373Q76.7351 14.5463 78.5368 14.5463Q80.2727 14.5463 81.1296 15.4252Q81.9866 16.2968 81.9866 17.8715L81.9866 17.9594Q81.9866 18.5673 81.5544 18.8163Q81.1296 19.058 80.1921 19.1606Q79.2619 19.2558 77.7678 19.4462Q76.6326 19.6 75.5046 19.849Q74.384 20.0981 73.4538 20.6034Q72.531 21.1015 71.9743 21.9804Q71.4177 22.8593 71.4177 24.2655Q71.4177 25.8622 72.1648 26.9901Q72.9118 28.1108 74.1789 28.704ZM128.526 29.29Q126.966 29.29 125.699 28.704Q124.432 28.1108 123.685 26.9901Q122.938 25.8622 122.938 24.2655Q122.938 22.8593 123.495 21.9804Q124.051 21.1015 124.974 20.6034Q125.904 20.0981 127.025 19.849Q128.153 19.6 129.288 19.4462Q130.782 19.2558 131.712 19.1606Q132.65 19.058 133.075 18.8163Q133.507 18.5673 133.507 17.9594L133.507 17.8715Q133.507 16.2968 132.65 15.4252Q131.793 14.5463 130.057 14.5463Q128.255 14.5463 127.23 15.3373Q126.212 16.1283 125.794 17.0219L123.407 16.165Q124.051 14.6781 125.121 13.8432Q126.19 13.0009 127.464 12.6713Q128.739 12.3344 129.969 12.3344Q130.76 12.3344 131.786 12.5248Q132.818 12.7079 133.778 13.2865Q134.745 13.8578 135.382 15.0224Q136.026 16.1796 136.026 18.1278L136.026 28.9091L133.507 28.9091L133.507 26.6899L133.382 26.6899Q133.126 27.2245 132.525 27.8324Q131.932 28.4403 130.943 28.8651Q129.955 29.29 128.526 29.29ZM164.192 29.2533Q161.827 29.2533 160.113 28.206Q158.406 27.1513 157.483 25.2616Q156.56 23.372 156.56 20.8525Q156.56 18.3402 157.483 16.4213Q158.406 14.495 160.061 13.4184Q161.717 12.3344 163.936 12.3344Q165.218 12.3344 166.463 12.7592Q167.708 13.184 168.726 14.1361Q169.751 15.0883 170.359 16.6557Q170.967 18.2231 170.967 20.5155L170.967 21.5775L159.087 21.5775Q159.175 24.1996 160.574 25.5985Q161.973 26.9901 164.192 26.9901Q165.672 26.9901 166.734 26.3529Q167.803 25.7157 168.279 24.434L170.711 25.1151Q170.14 26.9682 168.411 28.1108Q166.683 29.2533 164.192 29.2533ZM65.0702 12.5468L67.5824 12.5468L67.5824 28.9091L65.0702 28.9091L65.0702 12.5468ZM141.101 34.9442Q141.606 35.0468 142.243 35.0468Q145.664 35.0468 147.063 31.2968L154.006 12.5468L151.282 12.5468L146.763 25.5839L146.594 25.5839L142.075 12.5468L139.35 12.5468L145.4 28.997L144.931 30.2714Q144.47 31.5165 143.921 32.0732Q143.371 32.6371 142.668 32.703Q141.965 32.769 141.05 32.5346L140.412 34.7465Q140.603 34.8417 141.101 34.9442ZM30.734 19.4096L40.0577 19.4096Q40.0577 17.3295 38.8419 15.9599Q37.6261 14.5902 35.5826 14.5902Q34.1471 14.5902 33.0924 15.2641Q32.0377 15.9306 31.4298 17.0365Q30.8219 18.1352 30.734 19.4096ZM56.4455 25.2543Q55.237 26.9901 52.9665 26.9901Q51.3918 26.9901 50.3297 26.1552Q49.2751 25.3202 48.7331 23.8993Q48.1984 22.4711 48.1984 20.7279Q48.1984 18.9994 48.7257 17.6151Q49.2531 16.2235 50.3078 15.4106Q51.3698 14.5902 52.9665 14.5902Q55.2736 14.5902 56.4601 16.2895Q57.654 17.9814 57.654 20.7279Q57.654 23.5111 56.4455 25.2543ZM159.087 19.4096L168.411 19.4096Q168.411 17.3295 167.195 15.9599Q165.979 14.5902 163.936 14.5902Q162.5 14.5902 161.446 15.2641Q160.391 15.9306 159.783 17.0365Q159.175 18.1352 159.087 19.4096ZM79.9065 26.4482Q78.8811 27.0341 77.3869 27.0341Q75.8855 27.0341 74.9114 26.3676Q73.9372 25.7011 73.9372 24.39Q73.9372 23.4306 74.4499 22.8739Q74.97 22.3173 75.8122 22.039Q76.6618 21.7533 77.6433 21.6215Q78.0461 21.5702 78.698 21.4897Q79.3572 21.4091 80.053 21.2992Q80.7561 21.182 81.2908 21.0282Q81.8327 20.8744 81.9866 20.684L81.9866 22.9838Q81.9866 24.0092 81.4592 24.9394Q80.9319 25.8622 79.9065 26.4482ZM128.907 27.0341Q130.401 27.0341 131.427 26.4482Q132.452 25.8622 132.98 24.9394Q133.507 24.0092 133.507 22.9838L133.507 20.684Q133.353 20.8744 132.811 21.0282Q132.276 21.182 131.573 21.2992Q130.877 21.4091 130.218 21.4897Q129.566 21.5702 129.164 21.6215Q128.182 21.7533 127.333 22.039Q126.49 22.3173 125.97 22.8739Q125.458 23.4306 125.458 24.39Q125.458 25.7011 126.432 26.3676Q127.406 27.0341 128.907 27.0341Z" />
  </g>
  <path d="M136 66L141 57L145.5 66L157 68L150 75L152 86.5L143 81.5L132 86.5L132 75L126 68L136 66Z" id="Vector-10" fill="#D3D3D3" fill-rule="evenodd" stroke="#808080" stroke-width="1" />
  <path d="M16 102L266 102L266 107L16 107L16 102Z" id="Rectangle" fill="#FF9800" fill-rule="evenodd" stroke="none" />
  <path d="M424 768L468 768L468 772L424 772L424 768Z" id="Rectangle-2" fill="#FF9800" fill-rule="evenodd" stroke="none" />
  <path d="M38 212L383 212L383 554L38 554L38 212Z" id="Rectangle-3" fill="url(#gradient_1)" fill-rule="evenodd" stroke="none" />
  <path d="M227.5 736L234.874 736C236.766 736.023 238.325 736.328 238.5 736C238.971 735.117 243 725.5 243 725.5C243 725.5 244 723.5 246 722C248 720.5 251 719.5 251 719.5L256.5 719.5L256.5 714L262.5 719.5L256.5 725.5L256.5 722L251 722L246 727L243 736L238.5 738.926C237.047 740.106 236.575 739.342 234.874 740C233.475 740.542 232.155 740.173 231 740.144L227.5 740.144L227.5 736Z" id="Vector-11" fill="#FFFFFF" fill-rule="evenodd" stroke="#FFFFFF" stroke-width="1" />
  <path d="M226 720.936L226 717L235 717L240 721L238 724L235 721L226 720.936Z" id="Vector-12" fill="#FFFFFF" fill-rule="evenodd" stroke="#FFFFFF" stroke-width="1" />
  <path d="M245.5 732L248.5 734L255.5 734L255.5 729.5L264 734L257.5 740L255.5 737.5L248.5 737.5L244.5 736L245.5 732Z" id="Vector-13" fill="#FFFFFF" fill-rule="evenodd" stroke="#FFFFFF" stroke-width="1" />
  <path d="M565 728L565 733L561 735L538 735L538 731L531 736L538 741L538 737L561 737L566 734L566.5 728L565 728Z" id="Vector-14" fill="#FFFFFF" fill-rule="evenodd" stroke="#FFFFFF" stroke-width="1" />
  <path d="M533.002 728C533.002 728 532.708 722.969 533.002 723C533.297 723.031 536.002 721 536.002 721L560.002 721L560.002 725L567.002 720L567.002 719L560.002 715L560.002 719L536.002 719C536.002 719 531.976 720.11 532.002 722C532.029 723.89 531.5 728 531.5 728L533.002 728Z" id="Vector-15" fill="#FFFFFF" fill-rule="evenodd" stroke="#FFFFFF" stroke-width="1" />
  <path d="M411 285L594 285L594 318L411 318L411 285Z" id="Rectangle-5" fill="#00BCD4" fill-rule="evenodd" stroke="none" />
  <path d="M411 436L606 436L606 480L411 480L411 436Z" id="Rectangle-6" fill="#00BCD4" fill-rule="evenodd" stroke="none" />
  <path d="M411 383L606 383L606 427L411 427L411 383Z" id="Rectangle-7" fill="#00BCD4" fill-rule="evenodd" stroke="none" />
</svg>