<svg
   width="1024.0px"
   height="1024.0px"
   viewBox="0 0 1024.0 1024.0"
   version="1.1"
   id="SVGRoot"
   sodipodi:docname="cscore.svg"
   xml:space="preserve"
   inkscape:version="1.2.2 (b0a8486541, 2022-12-01)"
   xmlns:inkscape="http://www.inkscape.org/namespaces/inkscape"
   xmlns:sodipodi="http://sodipodi.sourceforge.net/DTD/sodipodi-0.dtd"
   xmlns:xlink="http://www.w3.org/1999/xlink"
   xmlns="http://www.w3.org/2000/svg"
   xmlns:svg="http://www.w3.org/2000/svg"><sodipodi:namedview
     id="namedview2267"
     pagecolor="#ffffff"
     bordercolor="#000000"
     borderopacity="0.25"
     inkscape:showpageshadow="2"
     inkscape:pageopacity="0.0"
     inkscape:pagecheckerboard="0"
     inkscape:deskcolor="#d1d1d1"
     inkscape:document-units="px"
     showgrid="true"
     inkscape:zoom="0.457453"
     inkscape:cx="358.50677"
     inkscape:cy="215.32267"
     inkscape:window-width="2056"
     inkscape:window-height="1272"
     inkscape:window-x="0"
     inkscape:window-y="0"
     inkscape:window-maximized="0"
     inkscape:current-layer="layer1"><inkscape:grid
       type="xygrid"
       id="grid2753" /></sodipodi:namedview><defs
     id="defs2262"><rect
       x="40.697196"
       y="695.83181"
       width="640.55775"
       height="80.886487"
       id="rect11834" /><linearGradient
       inkscape:collect="always"
       id="linearGradient5746"><stop
         style="stop-color:#6969ff;stop-opacity:1;"
         offset="0"
         id="stop5742" /><stop
         style="stop-color:#696969;stop-opacity:1;"
         offset="1"
         id="stop5744" /></linearGradient><linearGradient
       inkscape:collect="always"
       xlink:href="#linearGradient5746"
       id="linearGradient5748"
       x1="74.305626"
       y1="342.10864"
       x2="904.51869"
       y2="342.10864"
       gradientUnits="userSpaceOnUse" /><linearGradient
       inkscape:collect="always"
       xlink:href="#linearGradient5746"
       id="linearGradient7938"
       gradientUnits="userSpaceOnUse"
       x1="141.27501"
       y1="153.98831"
       x2="1027.9694"
       y2="711.80103"
       gradientTransform="matrix(1.0693457,0,0,1.0693457,-16.301945,-10.236325)" /><linearGradient
       inkscape:collect="always"
       xlink:href="#linearGradient5746"
       id="linearGradient7940"
       gradientUnits="userSpaceOnUse"
       x1="141.27501"
       y1="153.98831"
       x2="1027.9694"
       y2="711.80103"
       gradientTransform="matrix(1.0693457,0,0,1.0693457,-16.301945,-10.236325)" /><linearGradient
       inkscape:collect="always"
       xlink:href="#linearGradient5746"
       id="linearGradient7942"
       gradientUnits="userSpaceOnUse"
       x1="141.27501"
       y1="153.98831"
       x2="1027.9694"
       y2="711.80103"
       gradientTransform="matrix(1.0693457,0,0,1.0693457,-16.301945,-10.236325)" /><linearGradient
       inkscape:collect="always"
       xlink:href="#linearGradient5746"
       id="linearGradient7944"
       gradientUnits="userSpaceOnUse"
       x1="141.27501"
       y1="153.98831"
       x2="1027.9694"
       y2="711.80103"
       gradientTransform="matrix(1.0693457,0,0,1.0693457,-16.301945,-10.236325)" /><linearGradient
       inkscape:collect="always"
       xlink:href="#linearGradient5746"
       id="linearGradient7946"
       gradientUnits="userSpaceOnUse"
       x1="141.27501"
       y1="153.98831"
       x2="1027.9694"
       y2="711.80103"
       gradientTransform="matrix(1.0693457,0,0,1.0693457,-16.301945,-10.236325)" /><linearGradient
       inkscape:collect="always"
       xlink:href="#linearGradient5746"
       id="linearGradient7948"
       gradientUnits="userSpaceOnUse"
       x1="141.27501"
       y1="153.98831"
       x2="1027.9694"
       y2="711.80103"
       gradientTransform="matrix(1.0693457,0,0,1.0693457,-16.301945,-10.236325)" /><linearGradient
       inkscape:collect="always"
       xlink:href="#linearGradient5746"
       id="linearGradient7950"
       gradientUnits="userSpaceOnUse"
       x1="141.27501"
       y1="153.98831"
       x2="1027.9694"
       y2="711.80103"
       gradientTransform="matrix(1.0693457,0,0,1.0693457,-16.301945,-10.236325)" /><linearGradient
       inkscape:collect="always"
       xlink:href="#linearGradient5746"
       id="linearGradient7952"
       gradientUnits="userSpaceOnUse"
       x1="141.27501"
       y1="153.98831"
       x2="1027.9694"
       y2="711.80103"
       gradientTransform="matrix(1.0693457,0,0,1.0693457,-16.301945,-10.236325)" /><linearGradient
       inkscape:collect="always"
       xlink:href="#linearGradient5746"
       id="linearGradient7954"
       gradientUnits="userSpaceOnUse"
       x1="141.27501"
       y1="153.98831"
       x2="1027.9694"
       y2="711.80103"
       gradientTransform="matrix(1.0693457,0,0,1.0693457,-16.301945,-10.236325)" /><linearGradient
       inkscape:collect="always"
       xlink:href="#linearGradient5746"
       id="linearGradient7956"
       gradientUnits="userSpaceOnUse"
       x1="141.27501"
       y1="153.98831"
       x2="1027.9694"
       y2="711.80103"
       gradientTransform="matrix(1.0693457,0,0,1.0693457,-16.301945,-10.236325)" /><linearGradient
       inkscape:collect="always"
       xlink:href="#linearGradient5746"
       id="linearGradient7958"
       gradientUnits="userSpaceOnUse"
       x1="141.27501"
       y1="153.98831"
       x2="1027.9694"
       y2="711.80103"
       gradientTransform="matrix(1.0693457,0,0,1.0693457,-16.301945,-10.236325)" /><linearGradient
       inkscape:collect="always"
       xlink:href="#linearGradient5746"
       id="linearGradient7960"
       gradientUnits="userSpaceOnUse"
       x1="141.27501"
       y1="153.98831"
       x2="1027.9694"
       y2="711.80103"
       gradientTransform="matrix(1.0693457,0,0,1.0693457,-559.13525,261.39104)" /><linearGradient
       inkscape:collect="always"
       xlink:href="#linearGradient5746"
       id="linearGradient7962"
       gradientUnits="userSpaceOnUse"
       x1="141.27501"
       y1="153.98831"
       x2="1027.9694"
       y2="711.80103"
       gradientTransform="matrix(1.0693457,0,0,1.0693457,-16.301945,-10.236325)" /><linearGradient
       inkscape:collect="always"
       xlink:href="#linearGradient5746"
       id="linearGradient7964"
       gradientUnits="userSpaceOnUse"
       x1="141.27501"
       y1="153.98831"
       x2="1027.9694"
       y2="711.80103"
       gradientTransform="matrix(1.0693457,0,0,1.0693457,-16.301945,-10.236325)" /><linearGradient
       inkscape:collect="always"
       xlink:href="#linearGradient5746"
       id="linearGradient7966"
       gradientUnits="userSpaceOnUse"
       x1="141.27501"
       y1="153.98831"
       x2="1027.9694"
       y2="711.80103"
       gradientTransform="matrix(1.0693457,0,0,1.0693457,-16.301945,-10.236325)" /><linearGradient
       inkscape:collect="always"
       xlink:href="#linearGradient5746"
       id="linearGradient10893"
       gradientUnits="userSpaceOnUse"
       gradientTransform="matrix(1.0693457,0,0,1.0693457,-377.56928,-10.963043)"
       x1="141.27501"
       y1="153.98831"
       x2="1027.9694"
       y2="711.80103" /></defs><g
     inkscape:label="Layer 1"
     inkscape:groupmode="layer"
     id="layer1"><g
       id="g5717"
       style="fill:url(#linearGradient5748);fill-opacity:1;stroke:#2eff00;stroke-opacity:1;stroke-width:0.9;stroke-dasharray:none"
       transform="translate(6.1200775,3.207714)"><rect
         style="opacity:1;fill:url(#linearGradient7966);fill-opacity:1;stroke-width:0.9;stroke-linecap:square;paint-order:stroke markers fill;stroke:#2eff00;stroke-opacity:1;stroke-dasharray:none"
         id="rect4797"
         width="159.82674"
         height="116.23457"
         x="63.15646"
         y="568.96753" /><rect
         style="fill:url(#linearGradient7964);fill-opacity:1;stroke-width:0.9;stroke-linecap:square;paint-order:stroke markers fill;stroke:#2eff00;stroke-opacity:1;stroke-dasharray:none"
         id="rect4797-3"
         width="159.82674"
         height="116.23457"
         x="244.24442"
         y="295.62161" /><rect
         style="fill:url(#linearGradient7962);fill-opacity:1;stroke-width:0.9;stroke-linecap:square;paint-order:stroke markers fill;stroke:#2eff00;stroke-opacity:1;stroke-dasharray:none"
         id="rect4797-6"
         width="159.82674"
         height="116.23457"
         x="425.17896"
         y="25.990099" /><rect
         style="fill:url(#linearGradient7960);fill-opacity:1;stroke:#2eff00;stroke-width:0.9;stroke-linecap:square;stroke-dasharray:none;stroke-opacity:1;paint-order:stroke markers fill"
         id="rect4797-7"
         width="159.82674"
         height="116.23457"
         x="63.058659"
         y="434.31876" /><rect
         style="fill:url(#linearGradient7958);fill-opacity:1;stroke-width:0.9;stroke-linecap:square;paint-order:stroke markers fill;stroke:#2eff00;stroke-opacity:1;stroke-dasharray:none"
         id="rect4797-5"
         width="159.82674"
         height="116.23457"
         x="791.1145"
         y="431.32159" /><rect
         style="fill:url(#linearGradient7956);fill-opacity:1;stroke-width:0.9;stroke-linecap:square;paint-order:stroke markers fill;stroke:#2eff00;stroke-opacity:1;stroke-dasharray:none"
         id="rect4797-35"
         width="159.82674"
         height="116.23457"
         x="788.88544"
         y="568.28278" /><rect
         style="fill:url(#linearGradient7954);fill-opacity:1;stroke-width:0.9;stroke-linecap:square;paint-order:stroke markers fill;stroke:#2eff00;stroke-opacity:1;stroke-dasharray:none"
         id="rect4797-35-6"
         width="159.82674"
         height="116.23457"
         x="606.30096"
         y="566.86328" /><rect
         style="fill:url(#linearGradient7952);fill-opacity:1;stroke-width:0.9;stroke-linecap:square;paint-order:stroke markers fill;stroke:#2eff00;stroke-opacity:1;stroke-dasharray:none"
         id="rect4797-35-2"
         width="159.82674"
         height="116.23457"
         x="423.5433"
         y="566.60699"
         inkscape:transform-center-x="-319.33722"
         inkscape:transform-center-y="219.61139" /><rect
         style="fill:url(#linearGradient7950);fill-opacity:1;stroke-width:0.9;stroke-linecap:square;paint-order:stroke markers fill;stroke:#2eff00;stroke-opacity:1;stroke-dasharray:none"
         id="rect4797-35-9"
         width="159.82674"
         height="116.23457"
         x="243.1414"
         y="568.62488" /><rect
         style="fill:url(#linearGradient7948);fill-opacity:1;stroke-width:0.9;stroke-linecap:square;paint-order:stroke markers fill;stroke:#2eff00;stroke-opacity:1;stroke-dasharray:none"
         id="rect4797-35-1"
         width="159.82674"
         height="116.23457"
         x="244.46635"
         y="434.43375" /><rect
         style="fill:url(#linearGradient7946);fill-opacity:1;stroke-width:0.9;stroke-linecap:square;paint-order:stroke markers fill;stroke:#2eff00;stroke-opacity:1;stroke-dasharray:none"
         id="rect4797-35-27"
         width="159.82674"
         height="116.23457"
         x="424.42664"
         y="434.55127" /><rect
         style="fill:url(#linearGradient7944);fill-opacity:1;stroke-width:0.9;stroke-linecap:square;paint-order:stroke markers fill;stroke:#2eff00;stroke-opacity:1;stroke-dasharray:none"
         id="rect4797-35-0"
         width="159.82674"
         height="116.23457"
         x="604.50116"
         y="433.6073" /><rect
         style="fill:url(#linearGradient7942);fill-opacity:1;stroke-width:0.9;stroke-linecap:square;paint-order:stroke markers fill;stroke:#2eff00;stroke-opacity:1;stroke-dasharray:none"
         id="rect4797-35-93"
         width="159.82674"
         height="116.23457"
         x="423.79327"
         y="296.64816" /><rect
         style="fill:url(#linearGradient7940);fill-opacity:1;stroke-width:0.9;stroke-linecap:square;paint-order:stroke markers fill;stroke:#2eff00;stroke-opacity:1;stroke-dasharray:none"
         id="rect4797-35-60"
         width="159.82674"
         height="116.23457"
         x="605.81683"
         y="296.18729" /><rect
         style="fill:url(#linearGradient7938);fill-opacity:1;stroke-width:0.9;stroke-linecap:square;paint-order:stroke markers fill;stroke:#2eff00;stroke-opacity:1;stroke-dasharray:none"
         id="rect4797-35-62"
         width="159.82674"
         height="116.23457"
         x="423.19727"
         y="162.19986" /><rect
         style="fill:url(#linearGradient10893);fill-opacity:1;stroke:#2eff00;stroke-width:0.9;stroke-linecap:square;stroke-dasharray:none;stroke-opacity:1;paint-order:stroke markers fill"
         id="rect4797-7-8"
         width="159.82674"
         height="116.23457"
         x="244.62463"
         y="161.96466" /></g><g
       id="g9296"
       transform="translate(1099.8309,649.1108)"
       style="display:inline"><path
         style="fill:#333333;fill-opacity:1;stroke-width:2.14868"
         d="m -668.66374,323.75546 c -29.70483,-4.1275 -54.06649,-19.9886 -68.58423,-44.6531 -12.28691,-20.8744 -15.84508,-35.3335 -14.8389,-60.2997 0.71506,-17.7432 1.80676,-22.7604 7.67446,-35.2702 8.04411,-17.1498 26.11007,-37.0798 40.83546,-45.0488 13.26171,-7.177 32.9719,-12.8048 41.8517,-11.9498 l 7.02792,0.6766 v 19.1977 19.1977 l -10.15046,2.5894 c -5.58276,1.4242 -14.37533,5.0654 -19.53903,8.0915 -30.12001,17.6515 -36.55859,59.4233 -13.38984,86.8698 15.43171,18.2809 43.36027,24.9156 65.24731,15.5 12.10123,-5.2058 29.56,-22.4303 31.80603,-31.3793 1.9977,-7.9594 4.45383,-6.0804 7.24146,5.5397 1.40547,5.8587 5.87949,16.1724 9.94226,22.9193 l 7.38683,12.267 -5.96776,6.3797 c -20.65226,22.0779 -55.04199,33.7496 -86.54321,29.3725 z m -331.38706,-7.1275 c -17.2407,-5.8757 -34.9208,-17.5786 -44.4264,-29.4069 -24.9514,-31.0488 -28.5962,-74.4798 -9.2501,-110.2246 7.2743,-13.4403 26.7467,-31.3757 41.8056,-38.5058 11.7116,-5.5452 33.35513,-10.7642 36.52224,-8.8068 0.89286,0.5518 1.62337,8.6814 1.62337,18.0659 0,15.074 -0.45623,17.0626 -3.9146,17.0626 -7.91394,0 -23.74521,6.8744 -31.89371,13.8492 -4.6071,3.9435 -11.2111,12.3515 -14.6757,18.6844 -8.4776,15.4962 -9.0629,38.5931 -1.3534,53.4135 11.8733,22.8251 30.86568,34.96 55.06042,35.1803 17.50211,0.1594 30.17961,-4.9147 42.72794,-17.1015 11.63638,-11.3011 16.40668,-22.4657 18.60296,-43.5391 2.55789,-24.5431 6.69128,-37.6822 16.75017,-53.2453 14.33646,-22.1813 36.9721,-36.7951 64.65552,-41.7424 20.46382,-3.6571 39.20024,-0.4675 60.13436,10.2371 22.64097,11.5773 23.12199,13.092 8.72868,27.4853 l -11.83139,11.8314 -7.49094,-5.028 c -10.91892,-7.329 -20.41632,-10.0276 -35.20722,-10.0039 -16.95038,0.027 -31.5264,6.7286 -43.86525,20.1675 -15.97615,17.4005 -16.16969,17.3275 47.67834,17.9873 l 55.541,0.5739 -1.28598,4.7978 c -0.70728,2.6388 -1.29832,10.5992 -1.31341,17.6898 l -0.0275,12.8921 -53.30934,-0.6397 c -32.12882,-0.3855 -55.5633,0.2173 -58.98236,1.5172 -4.17888,1.5888 -6.32481,4.5774 -8.14771,11.3471 -8.748,32.4876 -38.03608,60.6127 -71.04319,68.2222 -15.95985,3.6793 -36.05812,2.6085 -51.8125,-2.7606 z m 165.29094,2.684 c -10.80355,-2.5425 -28.92577,-11.3052 -36.954,-17.8686 l -6.44604,-5.2699 11.74434,-11.9636 c 6.45937,-6.58 12.4596,-11.9636 13.33381,-11.9636 0.87422,0 5.06547,2.3589 9.31386,5.2419 25.46423,17.2805 63.94295,8.3652 82.27273,-19.0621 6.69348,-10.0156 7.15656,-10.3125 8.43838,-5.4109 0.74593,2.8525 4.53016,11.4888 8.40941,19.1919 l 7.05316,14.0056 -8.74924,8.9215 c -20.90379,21.3154 -57.75689,31.393 -88.41641,24.1778 z m 315.85575,0 c -15.03546,-3.5384 -31.82309,-13.0591 -45.36758,-25.7293 -24.77665,-23.1774 -33.85527,-53.8665 -26.16315,-88.4411 8.7443,-39.3039 38.51087,-67.6883 78.4741,-74.8301 27.92997,-4.9914 60.13492,4.7743 81.42867,24.6921 5.7675,5.3949 11.70088,9.8088 13.1853,9.8088 1.48439,0 7.81543,-4.6762 14.06894,-10.3916 6.25352,-5.7153 16.67609,-12.9038 23.16128,-15.9744 11.63522,-5.509 33.27185,-10.7135 36.42859,-8.7625 0.89286,0.5518 1.62337,8.6814 1.62337,18.0659 0,15.074 -0.45623,17.0626 -3.9146,17.0626 -7.91394,0 -23.74519,6.8744 -31.89369,13.8492 -13.49834,11.5541 -19.81817,25.5238 -22.0879,48.8243 -3.09575,31.7802 -10.86211,48.9011 -30.68788,67.6515 -6.40465,6.0573 -15.65372,13.0584 -20.55349,15.5581 -19.36049,9.877 -47.25835,13.4276 -67.70196,8.6165 z m 49.38334,-39.716 c 40.03096,-19.3196 45.88533,-75.4555 10.64677,-102.0888 -12.55469,-9.4889 -22.49639,-12.7016 -39.21908,-12.6738 -15.59247,0.026 -30.79927,6.7214 -42.06956,18.5231 -25.76929,26.9844 -21.47742,70.982 8.98335,92.0914 18.38893,12.7435 40.73366,14.2468 61.65852,4.1481 z m 206.46674,37.032 c -39.06923,-13.3149 -63.30224,-44.6977 -65.59742,-84.9516 -1.78181,-31.2503 7.90001,-56.1345 29.68943,-76.3077 38.82484,-35.94491 94.05864,-35.22389 134.33777,1.7537 l 12.71771,11.6753 -32.20332,32.3862 c -17.71182,17.8124 -33.1519,32.3862 -34.31128,32.3862 -1.15939,0 -7.19825,-5.027 -13.41968,-11.1712 l -11.3117,-11.1712 17.15299,-17.5734 c 9.43416,-9.6654 17.15301,-19.1659 17.15301,-21.1122 0,-4.8637 -8.67329,-7.7297 -23.39258,-7.7297 -24.52345,0 -43.2992,11.1013 -55.02426,32.5336 -5.36489,9.8065 -6.30543,13.9045 -6.34118,27.6294 -0.0469,18.0148 4.51097,29.6012 16.7691,42.6283 16.91334,17.9742 46.97912,23.9829 68.2624,13.6425 18.22948,-8.8568 31.83063,-25.8453 35.23945,-44.0158 l 1.49286,-7.9576 h 17.69935 17.69936 l -1.90767,12.3549 c -5.64241,36.5428 -36.39172,69.3461 -72.89188,77.7609 -15.95985,3.6793 -36.05811,2.6085 -51.81246,-2.7606 z"
         id="path8709"
         sodipodi:nodetypes="sssssscccssssssscssssssssssssssssssscsssscsscsssssssscsssssscsssssssssssssssssssssssssssscssscsssssssscccsss" /><path
         style="fill:#5ea8de;fill-opacity:1;stroke-width:2.14868"
         d="m -668.65205,323.68832 c -29.70483,-4.1275 -54.06649,-19.9886 -68.58423,-44.6531 -12.28691,-20.8744 -15.84508,-35.3335 -14.8389,-60.2997 0.71506,-17.7432 1.80676,-22.7604 7.67446,-35.2702 8.04411,-17.1498 26.11007,-37.0798 40.83546,-45.0488 13.26171,-7.177 32.9719,-12.8048 41.8517,-11.9498 l 7.02792,0.6766 v 19.1977 19.1977 l -10.15046,2.5894 c -5.58276,1.4242 -14.37533,5.0654 -19.53903,8.0915 -30.12001,17.6515 -36.55859,59.4233 -13.38984,86.8698 15.43171,18.2809 43.36027,24.9156 65.24731,15.5 12.10123,-5.2058 29.56,-22.4303 31.80603,-31.3793 1.9977,-7.9594 4.45383,-6.0804 7.24146,5.5397 1.40547,5.8587 5.87949,16.1724 9.94226,22.9193 l 7.38683,12.267 -5.96776,6.3797 c -20.65226,22.0779 -55.04199,33.7496 -86.54321,29.3725 z"
         id="path8807"
         sodipodi:nodetypes="sssssscccssssssscss" /></g></g></svg>
