<svg width="1200" height="1200" viewBox="0 0 1200 1200" fill="none" xmlns="http://www.w3.org/2000/svg">
<rect width="1200" height="1200" fill="#D9D9D9"/>
<rect x="26" y="28" width="460" height="105" rx="28" fill="#6A6A6A"/>
<rect x="520" y="28" width="646" height="105" rx="28" fill="#6A6A6A"/>
<rect x="26" y="155" width="460" height="105" rx="28" fill="#6A6A6A"/>
<rect x="520" y="155" width="646" height="105" rx="28" fill="#6A6A6A"/>
<rect x="26" y="282" width="460" height="105" rx="28" fill="#6A6A6A"/>
<rect x="520" y="282" width="646" height="105" rx="28" fill="#6A6A6A"/>
<rect x="26" y="409" width="460" height="105" rx="28" fill="#6A6A6A"/>
<rect x="520" y="409" width="646" height="105" rx="28" fill="#6A6A6A"/>
<rect x="123" y="536" width="443" height="105" rx="28" fill="#6A6A6A"/>
<rect x="600" y="536" width="533" height="105" rx="28" fill="#6A6A6A"/>
<rect x="123" y="663" width="443" height="105" rx="28" fill="#6A6A6A"/>
<rect x="600" y="663" width="533" height="105" rx="28" fill="#6A6A6A"/>
<rect x="123" y="905" width="443" height="105" rx="28" fill="#6A6A6A"/>
<rect x="600" y="905" width="533" height="105" rx="28" fill="#6A6A6A"/>
<rect x="123" y="1032" width="443" height="105" rx="28" fill="#6A6A6A"/>
<rect x="600" y="1032" width="533" height="105" rx="28" fill="#6A6A6A"/>
<rect x="26" y="790" width="460" height="105" rx="28" fill="#6A6A6A"/>
<rect x="520" y="790" width="646" height="105" rx="28" fill="#6A6A6A"/>
<circle cx="1100" cy="100" r="100" fill="#0048FF"/>
<circle cx="1100" cy="100" r="37.5" fill="#FF9900"/>
<circle cx="1100" cy="100" r="29.1667" fill="#00FF66"/>
<circle cx="1100" cy="100" r="20.8333" fill="#00F0FF"/>
<circle cx="1100" cy="100" r="12.5" fill="black"/>
</svg>
