<svg xmlns="http://www.w3.org/2000/svg" width="1200" height="1200" fill="none" viewBox="0 0 1200 1200"><rect width="1200" height="1200" fill="#D9D9D9"/><rect width="460" height="105" x="26" y="28" fill="#6A6A6A" rx="28"/><rect width="646" height="105" x="520" y="28" fill="#6A6A6A" rx="28"/><rect width="460" height="105" x="26" y="155" fill="#6A6A6A" rx="28"/><rect width="646" height="105" x="520" y="155" fill="#6A6A6A" rx="28"/><rect width="460" height="105" x="26" y="282" fill="#6A6A6A" rx="28"/><rect width="646" height="105" x="520" y="282" fill="#6A6A6A" rx="28"/><rect width="460" height="105" x="26" y="409" fill="#6A6A6A" rx="28"/><rect width="646" height="105" x="520" y="409" fill="#6A6A6A" rx="28"/><rect width="443" height="105" x="123" y="536" fill="#6A6A6A" rx="28"/><rect width="533" height="105" x="600" y="536" fill="#6A6A6A" rx="28"/><rect width="443" height="105" x="123" y="663" fill="#6A6A6A" rx="28"/><rect width="533" height="105" x="600" y="663" fill="#6A6A6A" rx="28"/><rect width="443" height="105" x="123" y="905" fill="#6A6A6A" rx="28"/><rect width="533" height="105" x="600" y="905" fill="#6A6A6A" rx="28"/><rect width="443" height="105" x="123" y="1032" fill="#6A6A6A" rx="28"/><rect width="533" height="105" x="600" y="1032" fill="#6A6A6A" rx="28"/><rect width="460" height="105" x="26" y="790" fill="#6A6A6A" rx="28"/><rect width="646" height="105" x="520" y="790" fill="#6A6A6A" rx="28"/><circle cx="1100" cy="100" r="100" fill="#0048FF"/><circle cx="1100" cy="100" r="37.5" fill="#F90"/><circle cx="1100" cy="100" r="29.167" fill="#0F6"/><circle cx="1100" cy="100" r="20.833" fill="#00F0FF"/><circle cx="1100" cy="100" r="12.5" fill="#000"/></svg>